<svg clip-rule="evenodd" fill-rule="evenodd" stroke-linejoin="round" stroke-miterlimit="2" viewBox="0 0 100 100" xmlns="http://www.w3.org/2000/svg"><g fill-rule="nonzero"><path d="m122.276 77.843h104.153v151.349h-104.153z" transform="matrix(.240032 0 0 .26429 -24.3502 -15.5732)"/><path d="m122.276 77.843h104.153v151.349h-104.153z" transform="matrix(.240032 0 0 .26429 7.64981 -15.5732)"/><path d="m122.276 77.843h104.153v151.349h-104.153z" transform="matrix(.240032 0 0 .26429 39.6498 -15.5732)"/><path d="m122.276 77.843h104.153v151.349h-104.153z" transform="matrix(.240032 0 0 .26429 -24.3502 34.4268)"/><path d="m122.276 77.843h104.153v151.349h-104.153z" transform="matrix(.240032 0 0 .26429 7.64981 34.4268)"/><path d="m122.276 77.843h104.153v151.349h-104.153z" transform="matrix(.240032 0 0 .26429 39.6498 34.4268)"/></g></svg>