<svg clip-rule="evenodd" fill-rule="evenodd" stroke-linejoin="round" stroke-miterlimit="2" viewBox="0 0 1000 1001" xmlns="http://www.w3.org/2000/svg"><path d="m0 0h1000v1000h-1000z" fill="#19161b"/><path d="m0 353.847 245.617-353.847v291.159l198.231-291.159v353.847z" fill="#e4362a" fill-rule="nonzero" transform="translate(61.9625 269.231)"/><path d="m564.96 269.232h113.928v353.847h-113.928z" fill="#45a734"/><g fill-rule="nonzero"><path d="m0 163.079h47.611c37.004 0 152.464-40.85 153.313-163.079h-131.46s-7.002 49.463-69.464 49.463z" fill="#45a734" transform="translate(699.501 459.999)"/><path d="m-99.342-58.058h134.17c-.262 2.765-.312 5.436-.131 7.994l-132.717 25.42c-1.598-11.326-1.938-22.554-1.322-33.414" fill="#45a734" transform="matrix(-.73273 .68052 .68052 .73273 813.914 425.301)"/><path d="m-42.721 56.986h130.741c-1.357 10.906-4.051 20.857-7.605 29.561l-124.793-20.916c.711-2.977 1.289-5.849 1.657-8.645" fill="#45a734" transform="matrix(.423057 -.906103 -.906103 -.423057 795.9 379.248)"/><path d="m-116.605-40.888h134.551c-.238 3.065-.237 5.919-.1 8.532l-131.529 25.356c-2.131-11.536-3.096-22.809-2.922-33.888" fill="#45a734" transform="matrix(-.888982 .457943 .457943 .888982 794.952 448.286)"/><path d="m-52.824-105.118c11.36 1.713 22.178 4.41 32.178 7.92l-32.178 128.225c-2.993-1.156-5.978-2.085-8.86-2.694z" fill="#45a734" transform="matrix(-.705132 -.709076 -.709076 .705132 718.636 337.591)"/><path d="m78.484-57.439c4.015 1.354 6.677 1.956 6.677 1.956l-6.677 131.292c-10.755-.547-20.84-2.136-30.514-4.253z" fill="#45a734" transform="matrix(-.0507925 .998709 .998709 .0507925 828.701 360.151)"/><path d="m-31.618-120.922h31.618v120.384c-3.613 0-6.926.233-10.232.538z" fill="#45a734" transform="matrix(-1 0 0 1 699.501 390.462)"/><g fill="#fff"><path d="m0-59.541.826.826v5.95l4.462-6.363h29.004l.827.827v57.474l-.414.406v.421h-18.385l-.826-.827v-42.27h-1.612l-23.674 43.097h-19.625v-.827l24.914-43.51h-6.942l-26.938 44.337h-19.212v-.421l34.293-59.12z" transform="translate(121.127 761.33)"/><path d="m0-59.21.951.872.041 12.349-.454.451h-43.341l-4.586 9.75 47.1-.037c0 1.269-2.081 5.589-6.239 12.973l-40.903-.12.042 9.33h48.422l.455.421v12.349l-.455.414v.458h-70.196l-.455-.421v-40.032l11.776-18.344.454-.413z" transform="translate(229.74 761.33)"/><path d="m0-59.21h52.926l.868.826v13.011l-.414.421v.45h-37.638l-5.537 8.384v22.273l28.053-.037v-9.631h-9.461v-.826l5.206-10.953h24.666v34.465l-.867.827h-68.834v-.421h-.454v-40.73c0-1.488 3.828-7.512 11.486-18.059" transform="translate(246.548 761.33)"/><path d="m0-29.222-.042 17.939h14.337l-12.684-17.939zm13.923-14.994 38.92 58.383v.827h-22.641c-1.349-.917-3.73-4.522-7.148-10.833h-17.105l-5.991-12.101v22.107l-.785.827h-18.262l-.784-.827.041-57.97.372-.413z" transform="translate(328.261 746.336)"/><path d="m0-33.188v34.42h19.915c1.239 0 4.942-5.574 11.114-16.737-6.585-10.487-10.687-16.383-12.313-17.683zm-20.906-13.011h56.603c2.783 3.441 8.951 13.732 18.51 30.86l-18.51 28.35h-56.603l-1.032-.871v-57.467z" transform="translate(406.258 748.319)"/><path d="m0-59.413 14.589 17.27v5.822l-14.093 14.708 15.325 20.786v.827h-24.663l-20.364-29.17v-.871h13.589l6.573-5.859v-3.764l-6.573-5.454h-19.13v44.088l-.991.827h-18.717l-.495-.421.082-58.376.496-.413z" transform="translate(519.58 761.533)"/><path d="m0-59.21h19.216l.864.826v57.557l-.864.827h-19.216l-.864-.827v-57.557z" transform="translate(539.772 761.33)"/><path d="m0-59.623.826.865v24.008c0 1.404-7.752 12.973-23.257 34.705l-30.491.045c-14.273-21.679-21.402-32.835-21.402-33.473l.038-26.15h20.124l.826.865v21.446l16.361 22.724 17.226-23.137v-21.484l.413-.414z" transform="translate(638.924 761.66)"/><path d="m0-59.21.946.872.046 12.349-.459.451h-43.337l-4.589 9.75 47.1-.037c0 1.269-2.081 5.589-6.235 12.973l-40.903-.12.038 9.33h48.422l.459.421v12.349l-.459.414v.458h-70.192l-.459-.421v-40.032l11.78-18.344.45-.413z" transform="translate(711.678 761.33)"/></g></g><g fill="#fff"><path d="m717.29 238.965h18.509v14.746h-18.509z" transform="matrix(-1 0 0 1 1453.09 507.326)"/><path d="m0-59.541.826.826v5.95l4.462-6.363h28.997l.827.827v57.474l-.407.406v.421h-18.389l-.826-.827v-42.27h-1.608l-23.677 43.097h-19.622v-.827l24.91-43.51h-6.941l-26.938 44.337h-19.216v-.421l34.3-59.12z" fill-rule="nonzero" transform="translate(796.609 761.33)"/><path d="m0-59.21.947.872.045 12.349-.458.451h-43.337l-4.59 9.75 47.101-.037c0 1.269-2.074 5.589-6.236 12.973l-40.903-.12.038 9.33h48.422l.459.421v12.349l-.459.414v.458h-70.192l-.458-.421v-40.032l11.779-18.344.45-.413z" fill-rule="nonzero" transform="translate(905.217 761.33)"/><path d="m61.733 318.457h845.768v7.692h-845.768z" transform="matrix(-1 0 0 1 969.234 355.396)"/></g></svg>