<svg clip-rule="evenodd" fill-rule="evenodd" stroke-linejoin="round" stroke-miterlimit="2" viewBox="0 0 1182 788" xmlns="http://www.w3.org/2000/svg"><g fill-rule="nonzero"><path d="m.00002174.00001978h1181.67594534v787.7922969h-1181.67594534z" fill="#074ea2" stroke-width="4.16667"/><g fill="#fff200" transform="matrix(4.16667 0 0 4.16667 -27.175 -24.725)"><path d="m142.28 47.129 5.984-4.367 5.985 4.367-2.278-7.062 6.078-4.367h-7.492l-2.293-7.149-2.293 7.156-7.488-.007 6.074 4.367z"/><path d="m111.311 55.45 5.984-4.368 5.981 4.368-2.274-7.063 6.075-4.367h-7.492l-2.293-7.156-2.293 7.164-7.489-.008 6.074 4.367z"/><path d="m94.635 59.575-2.293 7.164-7.488-.008 6.074 4.367-2.277 7.063 5.984-4.368 5.985 4.368-2.278-7.063 6.075-4.367h-7.489z"/><path d="m86.323 104.723 5.98 4.367-2.273-7.062 6.074-4.367h-7.488l-2.293-7.157-2.293 7.172-7.492-.015 6.078 4.367-2.278 7.062z"/><path d="m96.928 128.684-2.293-7.156-2.293 7.164-7.488-.008 6.074 4.367-2.277 7.063 5.984-4.375 5.985 4.375-2.278-7.063 6.075-4.367z"/><path d="m119.631 151.387-2.293-7.148-2.289 7.156-7.492-.008 6.074 4.367-2.273 7.063 5.984-4.367 5.981 4.367-2.274-7.063 6.075-4.367z"/><path d="m150.561 159.614-2.293-7.157-2.289 7.165-7.492-.008 6.074 4.367-2.273 7.062 5.984-4.367 5.98 4.367-2.277-7.062 6.078-4.367z"/><path d="m181.491 151.387-2.289-7.148-2.297 7.156-7.485-.008 6.071 4.367-2.274 7.063 5.985-4.367 5.984 4.367-2.281-7.063 6.078-4.367z"/><path d="m204.202 128.684-2.297-7.156-2.297 7.164-7.484-.008 6.078 4.367-2.282 7.063 5.985-4.375 5.984 4.375-2.281-7.063 6.078-4.367z"/><path d="m219.913 97.575h-7.493l-2.296-7.157-2.289 7.164-7.493-.007 6.078 4.367-2.273 7.062 5.977-4.375 5.984 4.375-2.273-7.062z"/><path d="m195.92 78.067 5.985-4.367 5.984 4.367-2.281-7.063 6.078-4.359h-7.484l-2.297-7.156-2.297 7.164-7.484-.008 6.078 4.359z"/><path d="m179.288 36.872-2.289 7.164-7.493-.016 6.071 4.375-2.274 7.062 5.992-4.375 5.977 4.375-2.273-7.062 6.078-4.375h-7.5z"/></g></g></svg>