<svg clip-rule="evenodd" fill-rule="evenodd" viewBox="0 0 977 651" xmlns="http://www.w3.org/2000/svg" xmlns:xlink="http://www.w3.org/1999/xlink"><clipPath id="a"><path clip-rule="nonzero" d="m6.522 5.934h283.602v189.07h-283.602z"/></clipPath><g transform="matrix(3.44317 0 0 3.44317 -22.4564 -20.4317)"><path d="m6.522 5.934h283.602v189.07h-283.602z" fill="#074ea2" fill-rule="nonzero"/><g clip-path="url(#a)"><path d="m0 0h1235v650h-1235" fill="#fff" fill-rule="nonzero" transform="matrix(.29043 0 0 .29043 6.522 5.93399)"/><path d="m0 0v651" fill="none" stroke="#b22234" stroke-dasharray="50 50" stroke-width="2470" transform="matrix(.29043 0 0 .29043 6.522 5.93399)"/><g fill-rule="nonzero"><path d="m0 0h494v350h-494" fill="#3c3b6e" transform="matrix(.29043 0 0 .29043 6.522 5.93399)"/><g fill="#fff"><g transform="matrix(.29043 0 0 .29043 6.522 5.93399)"><path d="m30.1 50.6 12-36 12 36-30.8-22h37.8"/><path d="m30.1 50.6 12-36 12 36-30.8-22h37.8" transform="translate(82)"/><g transform="translate(164)"><path d="m30.1 50.6 12-36 12 36-30.8-22h37.8"/><path d="m30.1 50.6 12-36 12 36-30.8-22h37.8" transform="translate(82)"/></g><path d="m30.1 50.6 12-36 12 36-30.8-22h37.8" transform="translate(328)"/><path d="m30.1 50.6 12-36 12 36-30.8-22h37.8" transform="translate(410)"/><g transform="translate(41 35)"><path d="m30.1 50.6 12-36 12 36-30.8-22h37.8"/><path d="m30.1 50.6 12-36 12 36-30.8-22h37.8" transform="translate(82)"/><g transform="translate(164)"><path d="m30.1 50.6 12-36 12 36-30.8-22h37.8"/><path d="m30.1 50.6 12-36 12 36-30.8-22h37.8" transform="translate(82)"/></g><path d="m30.1 50.6 12-36 12 36-30.8-22h37.8" transform="translate(328)"/></g><g transform="translate(0 70)"><path d="m30.1 50.6 12-36 12 36-30.8-22h37.8"/><path d="m30.1 50.6 12-36 12 36-30.8-22h37.8" transform="translate(82)"/><g transform="translate(164)"><path d="m30.1 50.6 12-36 12 36-30.8-22h37.8"/><path d="m30.1 50.6 12-36 12 36-30.8-22h37.8" transform="translate(82)"/></g><path d="m30.1 50.6 12-36 12 36-30.8-22h37.8" transform="translate(328)"/><path d="m30.1 50.6 12-36 12 36-30.8-22h37.8" transform="translate(410)"/><g transform="translate(41 35)"><path d="m30.1 50.6 12-36 12 36-30.8-22h37.8"/><path d="m30.1 50.6 12-36 12 36-30.8-22h37.8" transform="translate(82)"/><g transform="translate(164)"><path d="m30.1 50.6 12-36 12 36-30.8-22h37.8"/><path d="m30.1 50.6 12-36 12 36-30.8-22h37.8" transform="translate(82)"/></g><path d="m30.1 50.6 12-36 12 36-30.8-22h37.8" transform="translate(328)"/></g></g></g><g transform="matrix(.29043 0 0 .29043 6.522 46.5942)"><path d="m30.1 50.6 12-36 12 36-30.8-22h37.8"/><path d="m30.1 50.6 12-36 12 36-30.8-22h37.8" transform="translate(82)"/><g transform="translate(164)"><path d="m30.1 50.6 12-36 12 36-30.8-22h37.8"/><path d="m30.1 50.6 12-36 12 36-30.8-22h37.8" transform="translate(82)"/></g><path d="m30.1 50.6 12-36 12 36-30.8-22h37.8" transform="translate(328)"/><path d="m30.1 50.6 12-36 12 36-30.8-22h37.8" transform="translate(410)"/><g transform="translate(41 35)"><path d="m30.1 50.6 12-36 12 36-30.8-22h37.8"/><path d="m30.1 50.6 12-36 12 36-30.8-22h37.8" transform="translate(82)"/><g transform="translate(164)"><path d="m30.1 50.6 12-36 12 36-30.8-22h37.8"/><path d="m30.1 50.6 12-36 12 36-30.8-22h37.8" transform="translate(82)"/></g><path d="m30.1 50.6 12-36 12 36-30.8-22h37.8" transform="translate(328)"/></g><g transform="translate(0 70)"><path d="m30.1 50.6 12-36 12 36-30.8-22h37.8"/><path d="m30.1 50.6 12-36 12 36-30.8-22h37.8" transform="translate(82)"/><g transform="translate(164)"><path d="m30.1 50.6 12-36 12 36-30.8-22h37.8"/><path d="m30.1 50.6 12-36 12 36-30.8-22h37.8" transform="translate(82)"/></g><path d="m30.1 50.6 12-36 12 36-30.8-22h37.8" transform="translate(328)"/><path d="m30.1 50.6 12-36 12 36-30.8-22h37.8" transform="translate(410)"/><g transform="translate(41 35)"><path d="m30.1 50.6 12-36 12 36-30.8-22h37.8"/><path d="m30.1 50.6 12-36 12 36-30.8-22h37.8" transform="translate(82)"/><g transform="translate(164)"><path d="m30.1 50.6 12-36 12 36-30.8-22h37.8"/><path d="m30.1 50.6 12-36 12 36-30.8-22h37.8" transform="translate(82)"/></g><path d="m30.1 50.6 12-36 12 36-30.8-22h37.8" transform="translate(328)"/></g></g></g><g transform="matrix(.29043 0 0 .29043 6.522 87.2544)"><path d="m30.1 50.6 12-36 12 36-30.8-22h37.8"/><path d="m30.1 50.6 12-36 12 36-30.8-22h37.8" transform="translate(82)"/><g transform="translate(164)"><path d="m30.1 50.6 12-36 12 36-30.8-22h37.8"/><path d="m30.1 50.6 12-36 12 36-30.8-22h37.8" transform="translate(82)"/></g><path d="m30.1 50.6 12-36 12 36-30.8-22h37.8" transform="translate(328)"/><path d="m30.1 50.6 12-36 12 36-30.8-22h37.8" transform="translate(410)"/></g></g></g></g></g></svg>