<svg clip-rule="evenodd" fill-rule="evenodd" stroke-linejoin="round" stroke-miterlimit="2" viewBox="0 0 95 72" xmlns="http://www.w3.org/2000/svg" xmlns:xlink="http://www.w3.org/1999/xlink"><clipPath id="a"><path clip-rule="evenodd" d="m372.988 218.897c0-4.56-3.703-8.262-8.263-8.262h-74.961c-4.56 0-8.262 3.702-8.262 8.262v52.326c0 4.56 3.702 8.262 8.262 8.262h74.961c4.56 0 8.263-3.702 8.263-8.262z"/></clipPath><g transform="matrix(.99999695 0 0 1 -280.016383 -209.135)"><path d="m372.988 218.897c0-4.56-3.703-8.262-8.263-8.262h-74.961c-4.56 0-8.262 3.702-8.262 8.262v52.326c0 4.56 3.702 8.262 8.262 8.262h74.961c4.56 0 8.263-3.702 8.263-8.262z" fill="none"/><g clip-path="url(#a)"><path d="m274.597 206.086h106.366v83.446h-106.366z" fill="#f4e600" transform="translate(-1.19596)"/><g fill="#1d1d1b"><path d="m1490.1 257.872c13.33 0 24.15 10.822 24.15 24.151 0 13.33-10.82 24.152-24.15 24.152s-24.15-10.822-24.15-24.152c0-13.329 10.82-24.151 24.15-24.151zm-13.19 10.268c-3.67 3.489-5.96 8.421-5.96 13.883 0 10.57 8.58 19.152 19.15 19.152s19.15-8.582 19.15-19.152c0-1.255-.12-2.483-.35-3.673l-10.25 3.515v.158c0 4.719-3.83 8.55-8.55 8.55s-8.55-3.831-8.55-8.55c0-1.97.67-3.785 1.79-5.232zm13.19 7.333c3.61 0 6.55 2.935 6.55 6.55s-2.94 6.55-6.55 6.55c-3.62 0-6.55-2.935-6.55-6.55s2.93-6.55 6.55-6.55zm17.3-1.658c-3.07-6.469-9.67-10.943-17.3-10.943-3.39 0-6.57.882-9.34 2.429l7.89 8.295c.47-.081.95-.123 1.45-.123 2.49 0 4.73 1.067 6.3 2.769z" transform="translate(-1148.51)"/><path d="m533.973 231.143h98.717l-3.908-9.674-13.764 6.393-18.492-8.593-13.59 6.072-25.209-10.301-22.887 9.5z" transform="translate(-255.514)"/><path d="m572.106 271.975s-1.704 1.544-1.704 9.74h-35.213v-9.839z" transform="matrix(-1 0 0 1 938.918 0)"/><path d="m572.106 271.975s-1.704 1.544-1.704 9.74h-35.213v-9.839z" transform="translate(-255.706)"/><path d="m608.716 257.926s5.072 2.836 6.273 4.059c-.191-4.63-.292-21.28 12.368-29.373 0-3.498-2.618-.872-2.618-.872s-12.57 9.179-16.023 26.186z" transform="translate(-255.514)"/><path d="m536.007 254.866c9.715-9.601 37.821-21.998 66.232-25.22 2.927 0 3.741.572 3.741.572s-53.219 8.875-70.156 34.891c-16.938 26.016-9.533-.641.183-10.243z" transform="translate(-255.514)"/><path d="m577.011 251.557c-.386-.024 3.457.08 6.804.677 2.097-2.363 4.994-5.064 7.452-6.934-1.751-.372-3.916-.43-4.925-.471-.955.041-7.929 5.268-9.331 6.728z" transform="translate(-255.514)"/><path d="m562.718 267.307h9.107s3.083-6.167 8.168-10.858c-2.693-.346-4.03-.453-6.926-.395.154-.343-7.565 7.19-10.349 11.253z" transform="translate(-255.514)"/><path d="m590.747 241.498s2.888.319 4.211.697c1.383-1.341 4.759-3.362 5.827-4.018-1.675-.388-2.669-.625-3.197-.652-.529-.026-4.2 1.978-6.841 3.973z" transform="translate(-255.514)"/><path d="m601.213 235.372s2.136.465 2.747.673c1.036-.727 2.69-1.821 3.724-2.378-1.142-.269-2.141-.341-2.563-.342s-3.908 2.047-3.908 2.047z" transform="translate(-255.514)"/></g></g><path d="m374.488 218.897c0-5.387-4.375-9.762-9.763-9.762h-74.961c-5.388 0-9.762 4.375-9.762 9.762v52.326c0 5.388 4.374 9.762 9.762 9.762h74.961c5.388 0 9.763-4.374 9.763-9.762zm-3 0v52.326c0 3.733-3.03 6.762-6.763 6.762h-74.961c-3.732 0-6.762-3.029-6.762-6.762v-52.326c0-3.732 3.03-6.762 6.762-6.762h74.961c3.733 0 6.763 3.03 6.763 6.762z" fill="#1d1d1b"/></g></svg>