<svg clip-rule="evenodd" fill-rule="evenodd" stroke-linejoin="bevel" stroke-miterlimit="1.5" viewBox="0 0 92 69" xmlns="http://www.w3.org/2000/svg" xmlns:xlink="http://www.w3.org/1999/xlink"><clipPath id="a"><path clip-rule="evenodd" d="m372.988 218.897c0-4.56-3.703-8.262-8.263-8.262h-74.961c-4.56 0-8.262 3.702-8.262 8.262v52.326c0 4.56 3.702 8.262 8.262 8.262h74.961c4.56 0 8.263-3.702 8.263-8.262z"/></clipPath><g transform="matrix(.99999695 0 0 1 -281.507635 -210.635135)"><path d="m372.988 218.897c0-4.56-3.703-8.262-8.263-8.262h-74.961c-4.56 0-8.262 3.702-8.262 8.262v52.326c0 4.56 3.702 8.262 8.262 8.262h74.961c4.56 0 8.263-3.702 8.263-8.262z" fill="none"/><g clip-path="url(#a)"><path d="m296.952 94.485h116.609v85.966h-116.609z" fill="#1d1d1b" transform="translate(-23.0662 108.588)"/><g fill="#f4e600"><path d="m1254.35 168.209 23.81-14.765v-2.829h1v2.918l23.8 14.753v30.151l-24.37 15.107-24.36-15.107v-25.89h-1.33v-3.928l-22.34-14.175-25.75 15.478-.54-.018-9.94-6.896c-.23-.157-.28-.469-.13-.696.16-.226.47-.283.7-.125l9.67 6.712 25.74-15.471.52.007 23.29 14.774zm-46.87-88.952 23.68-14.686 23.72 14.704 23.71-14.704 24.37 15.107v30.151l-23.71 14.701v8.55h-1v-8.357l-23.37-14.491-23.72 14.704-23.68-14.686-23.69 14.686-24.37-15.107v-30.151l24.37-15.107zm-.68.755-23.01-14.265-23.37 14.487v29.038l23.37 14.488 23.01-14.265zm48.73.037v29.409l23.06 14.302 23.37-14.488v-29.038l-23.37-14.487z" transform="translate(-916.066 108.588)"/><path d="m1268.28 133.457 2.94-2.978v-3.188h-11.11v-1h11.61l.5.5v3.893l-.15.351-4.14 4.194 1.14 1.139h7.58l.38.173 3.59 4.147-.07.721-2.03 1.584v3.336l-4.33 4.329h-.93c-.64.696-1.57 1.132-2.59 1.132s-1.95-.436-2.59-1.132h-2.96c-.65.696-1.57 1.132-2.59 1.132s-1.95-.436-2.59-1.132h-3.71c-.64.696-1.57 1.132-2.59 1.132s-1.95-.436-2.59-1.132h-4.61c-.64.696-1.56 1.132-2.59 1.132-1.02 0-1.94-.436-2.59-1.132h-3.79c-.65.696-1.57 1.132-2.59 1.132-1.03 0-1.95-.436-2.6-1.132h-2.15c-1.77 0-2.47-1.483-2.47-2.663v-2.744h-4.24v-2.235l.57-.568-.26-.219 4.9-5.688.38-.173h4.77l2.1-2.916h4.29l2.79 1.708h17.99v-.111h.12v-1.592zm-1.41 3.911v5.039l10.75.026 1.9-1.488-3.09-3.577zm-14.24 0v5.004l13.24.032v-5.036zm-1 5.001v-5.001h-13.11v4.935h-1v-4.935h-8.28l-4.25 4.936z" transform="translate(-916.066 108.588)"/><circle cx="358.039" cy="126.149" r="4.343" transform="translate(-23.3743 108.569)"/></g><path d="m351.317 125.491h14.294l2.331 2.33v7.178h-18.256l-2.521-1.706v-3.764z" fill="#1d1d1b" transform="translate(-23.0662 108.588)"/><path d="m1257.46 124.991v-5.724h1v5.724h.15l.35.146 2.34 2.33.14.354v7.178l-.5.5h-18.25l-.28-.086-2.53-1.706-.22-.414v-3.764l.16-.359 4.15-4.038.35-.141zm-9.91 9.508v-2.473c0-.392-.11-.657-.28-.829-.42-.42-1.13-.32-1.13-.32l-.06.003h-5.42v2.148l2.18 1.471zm1 0h11.89v-6.471l-2.04-2.037h-13.88l-3.86 3.749v.14h5.41c.23-.014 1.26-.039 1.91.608.32.322.57.803.57 1.538z" fill="#f4e600" transform="translate(-916.066 108.588)"/><g fill="none" stroke="#f4e600"><path d="m312.591 129.487h5.484" transform="translate(-23.0662 108.588)"/><path d="m312.591 129.487h5.484" stroke-width=".73" transform="matrix(1.3757 0 0 1.3757 -133.103 59.9408)"/><path d="m312.591 129.487h5.484" stroke-width=".54" transform="matrix(1.84544 0 0 1.84544 -270.367 -.884642)"/><path d="m312.591 129.487h5.484" stroke-width="1.2" transform="matrix(.830842 0 0 .830842 59.7278 130.492)"/></g></g><path d="m372.988 218.897c0-4.56-3.703-8.262-8.263-8.262h-74.961c-4.56 0-8.262 3.702-8.262 8.262v52.326c0 4.56 3.702 8.262 8.262 8.262h74.961c4.56 0 8.263-3.702 8.263-8.262zm-3 0v52.326c0 2.905-2.358 5.262-5.263 5.262h-74.961c-2.904 0-5.262-2.357-5.262-5.262v-52.326c0-2.904 2.358-5.262 5.262-5.262h74.961c2.905 0 5.263 2.358 5.263 5.262z" fill="#1d1d1b"/></g></svg>