<svg clip-rule="evenodd" fill-rule="evenodd" stroke-linejoin="round" stroke-miterlimit="2" viewBox="0 0 95 72" xmlns="http://www.w3.org/2000/svg" xmlns:xlink="http://www.w3.org/1999/xlink"><clipPath id="a"><path clip-rule="evenodd" d="m372.988 218.897c0-4.56-3.703-8.262-8.263-8.262h-74.961c-4.56 0-8.262 3.702-8.262 8.262v52.326c0 4.56 3.702 8.262 8.262 8.262h74.961c4.56 0 8.263-3.702 8.263-8.262z"/></clipPath><g transform="matrix(.99999695 0 0 1 -280.004401 -209.135)"><path d="m372.988 218.897c0-4.56-3.703-8.262-8.263-8.262h-74.961c-4.56 0-8.262 3.702-8.262 8.262v52.326c0 4.56 3.702 8.262 8.262 8.262h74.961c4.56 0 8.263-3.702 8.263-8.262z" fill="none"/><g clip-path="url(#a)"><path d="m274.597 206.086h106.366v83.446h-106.366z" fill="#1d1d1b"/><g fill="#fae91c"><path d="m283.355 226.635 3.645-3.635-1-6 4.844 2.628 4.156-2.628v5l4 4-5.57 1.161-2.43 4.839-2.624-5.282z"/><path d="m292 256 2 3h4l-3.13 2.708 1.13 3.292-3-1-3 2 .172-3.853-2.549-2.206 3.332-.528z"/><path d="m353.792 211.041-1.424 4.121-3.634.941 3.193 2.322-.08 4.709 3.418-2.484 3.81 1.583-1.697-4.677 3.217-3.049-4.656.029z"/><path d="m343.1 281.61-.544-2.95 9.487-3.984.695-1.347-2.006-3.533 2.9-.873-.895-6.525 6.593-.503 2.621-3.803 4.503.869 7.617-3.843v26.896z"/><path d="m356.914 238.792 1.2-.168-.488-13.455-1.815-.09z"/><path d="m337.954 257.369-6.586-4.982-1.571 1.342 7.585 5.028z"/><path d="m298.01 261.642 9.903.731-.148 1.015-9.839.035z"/><path d="m296.662 231.842 1.832-1.715 9.042 6.655-1.27 1.745z"/><path d="m339.587 281.78-2.761-5.627 8.119-5.108-4.513-5.015 7.335-1.336-3.091-9.957 10.359 3.296.986-11.317 8.213 5.386 3.093-5.984 7.782 3.797-.515-1.344-8.59-10.388-2.983 9.704-10.064-8.862.025 14.04-13.188-3.745 2.71 12.335-10.601 1.749 7.4 7.059-9.193 3.483 6.383 7.555z"/><circle cx="312.483" cy="230.403" r="5.831" transform="translate(.269025 -.179765)"/><path d="m297.132 246.85s3.294 3.119 4.531 3.09c1.237-.028 3.119-1.875 10.973-3.859 2.69-1.071 4.462-2.845 4.462-2.845l4.358 3.637s-7.896.114-8.275 9.225c-.097 5.461.22 6.185.22 6.185s-5.074 3.05-5.046 6.106 5.851 1.61 11.032-.035c1.993-1.79.967-5.478.176-6.691-.222-1.83-.269-6.077-.069-7.09s7.533-2.547 10.277-5.402c2.744-2.854 4.558-5.901 5.192-13.485 3.458-2.692 5.023-2.317 10.123-.948 4.551-.308 3.946-4.065 3.946-6.599s.228-7.752-2.047-7.696c-2.275.057-2.468.619-5.631 6.445-2.497-.067-12.189.124-12.651 10.829-2.646-.98-4.208-3.776-4.208-3.776s2.987-5.84 2.487-12.601c-.048-.65 1.439-2.978 1.439-4.375 0-1.398-3.474-4.935-4.136-4.563-.662.373.995 3.688.912 5.276-.101 1.92-1.636 5.205-4.07 11.642-1.885 4.986-3.249 7.92-6.354 9.326-.961.435-7.426 4.96-9.431 6.577-2.004 1.617-5.2.55-6.979.857-1.778.307-1.231.77-1.231.77z"/></g></g><path d="m374.488 218.897c0-5.387-4.375-9.762-9.763-9.762h-74.961c-5.388 0-9.762 4.375-9.762 9.762v52.326c0 5.388 4.374 9.762 9.762 9.762h74.961c5.388 0 9.763-4.374 9.763-9.762zm-3 0v52.326c0 3.733-3.03 6.762-6.763 6.762h-74.961c-3.732 0-6.762-3.029-6.762-6.762v-52.326c0-3.732 3.03-6.762 6.762-6.762h74.961c3.733 0 6.763 3.03 6.763 6.762z" fill="#1d1d1b"/></g></svg>