<svg clip-rule="evenodd" fill-rule="evenodd" stroke-linejoin="round" stroke-miterlimit="2" viewBox="0 0 95 72" xmlns="http://www.w3.org/2000/svg" xmlns:xlink="http://www.w3.org/1999/xlink"><clipPath id="a"><path clip-rule="evenodd" d="m372.988 218.897c0-4.56-3.703-8.262-8.263-8.262h-74.961c-4.56 0-8.262 3.702-8.262 8.262v52.326c0 4.56 3.702 8.262 8.262 8.262h74.961c4.56 0 8.263-3.702 8.263-8.262z"/></clipPath><g transform="matrix(.99999695 0 0 1 -280.008118 -209.135)"><path d="m372.988 218.897c0-4.56-3.703-8.262-8.263-8.262h-74.961c-4.56 0-8.262 3.702-8.262 8.262v52.326c0 4.56 3.702 8.262 8.262 8.262h74.961c4.56 0 8.263-3.702 8.263-8.262z" fill="none"/><g clip-path="url(#a)"><path d="m274.597 206.086h106.366v83.446h-106.366z" fill="#1d1d1b" transform="translate(-1.27721)"/><g fill="#fae91c" transform="translate(-119.107)"><path d="m472.022 259.632s-.756-1.414-.756-2.668c0-4.099 5.78-5.156 5.78-7.23 0-2.075-1.501-2.588-1.501-2.588 4.245-.165 5.433 1.184 5.429 3.208-.011 5.667-7.157 4.528-7.631 6.83-.19.923.28 1.829.188 2.328-.079.42-1.509.12-1.509.12z"/><path d="m439.451 272.801s2.883-4.446 9.215-6.31c-1.281-1.541-34.936-18.047-36.472-15.542-.545.891.888 7.612 3.278 8.395 10.349 3.389 23.979 13.457 23.979 13.457z"/><path d="m411.253 240.062s8.914.5 12.178.17c-1.119 1.653-5.107 8.632-12.51 8.65-6.138.015-.746-5.63.332-8.82z"/><path d="m411.882 238.179s2.141-14.062 12.821-15.883c1.237-.037.411 1.41-.628 2.342s-2.433 4.711-3.042 13.701c-.008.122-9.194.267-9.151-.16z"/><path d="m423.009 238.334s-1.33-15.423 7.244-17.232c2.602-.549 9.123 5.882 10.962 14.084.057.257-8.563 3.38-18.206 3.148z"/><path d="m438.719 238.073s8.163 6.989 17.296 6.989c9.132 0-1.73-9.79-3.052-10.909-1.698.713-9.558 3.306-14.244 3.92z"/><path d="m450.261 246.303c1.095-.247 3.866 1.539 3.866 5.61 0 4.07-3.988 2.256-4.812 1.355-.734.416-.904 5.916-7.611 5.916s-8.307-5.187-8.307-7.074 2.329-4.964 3.208-4.964c.878 0 .106 4.491 1.479 4.816 1.736.411 4.878.621 7.009-.754 1.898-1.226 2.355.465 4.276.465 1.92 0 1.575-1.119.861-2.586-.707-1.452-.502-2.663.031-2.784z"/><path d="m421.872 247.231c0-1.685 1.554-5.075 5.068-5.075 2.282 0 3.109 1.307 3.109 1.945 0 .637-.71 2.339-2.17.591-1.46-1.747-4.116.268-4.116 2.523 0 2.256 1.033 3.869 2.159 4.335s-.082 1.889-.971 1.238-3.079-1.811-3.079-5.557z"/><path d="m450.167 258.233c2.677 1.1 15.84 7.135 15.84 7.135l-.016 3.326-17.186-8.206c-.927-.42.063-2.789 1.362-2.255z"/><path d="m468.019 259.256-.005.995s-.024 4.768-.024 6.076c0 .965.293 2.74 1.724 4.011.914.812 2.306 1.445 4.451 1.445 5.47 0 5.934-5.416 5.934-5.416l.003-.043v-7.068zm10.083 6.973v-4.973h-8.093c-.007 1.468-.019 4.143-.019 5.071 0 .603.158 1.722 1.052 2.516.637.565 1.628.94 3.123.94 3.421 0 3.895-3.189 3.937-3.554z"/><path d="m475.036 263.331v2.024h1v-2.024z"/><path d="m435.173 221.776s7.018 7.46 7.819 12.783c.04.264 7.738-1.795 9.182-3.333 1.445-1.539-9.394-11.798-15.248-11.769-4.259.021-1.899 2.118-1.753 2.319z"/><path d="m406.986 279.197 37.442-.242s-26.558-17.904-31.182-17.919c-3.189-.011-6.116 7.716-6.26 18.161z"/><path d="m472.455 248.329c.221 1.879-6.503-5.352-2.814-9.421 1.944.078 4.311 2.627 4.272 3.033-.04.406-2.112.852-1.458 6.388z"/><path d="m475.808 231.294s7.787-7.598 7.765-11.18c-.021-3.581-1.835-4.021-3.529-4.021-1.693 0-15.205 5.933-15.205 13.837 0 3.759 3.447 3.953 4.398 3.953.95 0-10.091 2.54-10.091-5.856s10.161-14.95 17.431-14.95c7.271 0 12.445 3.55 12.445 9.282s-4.814 9.656-7.673 13.032c-3.077-2.519-5.541-4.097-5.541-4.097z"/><path d="m415.055 220.768c0-2.148 2.596-3.72 5.801-3.72s3.399 1.923 5.707 1.357c1.742-.427.994-.928 1.983-1.386 1.09-.504 2.398 1.026 2.938.38.541-.646 2.016-3.284 5.564-3.284s4.998 1.706 4.998 2.862c0 1.157-.679 1.261-1.409 1.261s-1.903-1.998-3.688-1.974c-3.339.046-3.929 3.067-6.618 3.067s-2.09 1.082-3.486 1.082-.814-1.162-4.216-1.162c-3.401 0-4.617 1.33-4.617 2.73s-.169 1.748-.967 1.748c-.797 0-1.99-.873-1.99-2.961z"/><path d="m469.987 236.488c1.928.856 4.206 2.317 5.751 3.861l4.014-3.754-5.577-3.864z"/></g></g><path d="m374.488 218.897c0-5.387-4.375-9.762-9.763-9.762h-74.961c-5.388 0-9.762 4.375-9.762 9.762v52.326c0 5.388 4.374 9.762 9.762 9.762h74.961c5.388 0 9.763-4.374 9.763-9.762zm-3 0v52.326c0 3.733-3.03 6.762-6.763 6.762h-74.961c-3.732 0-6.762-3.029-6.762-6.762v-52.326c0-3.732 3.03-6.762 6.762-6.762h74.961c3.733 0 6.763 3.03 6.763 6.762z" fill="#1d1d1b"/></g></svg>