<svg clip-rule="evenodd" fill-rule="evenodd" stroke-linejoin="round" stroke-miterlimit="2" viewBox="0 0 95 72" xmlns="http://www.w3.org/2000/svg" xmlns:xlink="http://www.w3.org/1999/xlink"><clipPath id="a"><path clip-rule="evenodd" d="m372.988 218.897c0-4.56-3.703-8.262-8.263-8.262h-74.961c-4.56 0-8.262 3.702-8.262 8.262v52.326c0 4.56 3.702 8.262 8.262 8.262h74.961c4.56 0 8.263-3.702 8.263-8.262z"/></clipPath><g transform="matrix(.99999695 0 0 1 -280.011368 -209.135)"><path d="m372.988 218.897c0-4.56-3.703-8.262-8.263-8.262h-74.961c-4.56 0-8.262 3.702-8.262 8.262v52.326c0 4.56 3.702 8.262 8.262 8.262h74.961c4.56 0 8.263-3.702 8.263-8.262z" fill="none"/><g clip-path="url(#a)"><path d="m274.597 206.086h106.366v83.446h-106.366z" fill="#1d1d1b" transform="translate(-.463442)"/><g fill="#f4e600" transform="matrix(.975653 0 0 .969765 -345.477 7.42998)"><path d="m1547.04 250.421 1.89 1.734 50.61-2.999.12 1.996-51.45 3.049-9.41-8.603 9.85-7.747 51.23 2.13-.08 1.998-50.49-2.099-2.18 1.711 3.91 3.242h49.03v2h-48.54zm-5.15-4.708 3.65 3.342 3.8-3.034-3.82-3.165z" transform="matrix(1.02495 0 0 1.03118 -932.496 -7.66163)"/><path d="m725.942 245.006c0-.194-.157-.351-.35-.351h-1.645c-.193 0-.35.157-.35.351v1.642c0 .194.157.352.35.352h1.645c.193 0 .35-.158.35-.352z"/><path d="m1612.92 250.218-9.76 1.407v2.775l3.4 3.374c.27.272.27.714 0 .986l-3.97 3.944c-.27.272-.72.272-.99 0l-3.97-3.944c-.27-.272-.27-.714 0-.986l3.53-3.513v-2.348l-2.89.417v-.044c-.49-.096-.87-.919-.87-1.919 0-.998.38-1.821.87-1.919v-.507c-.49-.098-.87-.92-.87-1.918 0-.996.38-1.817.87-1.918v-1.262c-.49-.101-.87-.922-.87-1.917s.38-1.814.86-1.918v-.009l.03.004c.03-.004.05-.006.08-.006.08 0 .16.02.23.058l2.56.421v-2.259l-3.53-3.513c-.27-.272-.27-.714 0-.986l3.97-3.945c.27-.272.72-.272.99 0l3.97 3.945c.27.272.27.714 0 .986l-3.4 3.374v2.727l9.55 1.571 3.18-3.157c.46-.458 1.21-.458 1.67 0l6.68 6.642c.46.458.46 1.202 0 1.66l-6.68 6.641c-.46.458-1.21.458-1.67 0zm-1.71-4.527 5.51 5.481 5.52-5.481-5.52-5.482z" transform="matrix(1.02495 0 0 1.03118 -932.496 -7.66163)"/></g><g transform="translate(-362.269)"><path d="m697.97 224.167h-32.906v35.789l16.455 11.509 16.451-11.509z" fill="#1d1d1b"/><g fill="#f4e600"><path d="m681.876 223.989c10.201-.065 14.189-2.175 16.455-2.067 2.301.109 3.402 1.918 3.402 3.177s-.171 2.943-.171 5.743-1.413 3.513-2.59 3.513c0 2.099.979 26.149.979 26.149l-17.976 12.323-.001.143-.098-.071-.098.071-.001-.143-17.976-12.323s.979-24.05.979-26.149c-1.177 0-2.59-.713-2.59-3.513s-.172-4.484-.172-5.743 1.102-3.068 3.403-3.177c2.266-.108 6.254 2.002 16.455 2.067zm0 45.721 15.577-11.145-.811-33.442s-4.57 1.65-13.834 1.792c-.186.007-.38.01-.58.01-.118 0-.236 0-.352-.001-.116.001-.234.001-.352.001-.2 0-.394-.003-.58-.01-9.264-.142-13.834-1.792-13.834-1.792l-.811 33.442z" transform="matrix(1.0216 0 0 1 -15.1561 0)"/><path d="m681.375 239.777c2.008.004 3.152.247 3.152.247l3.031-3.519s-3.169-1.754-2.08-3.793 2.563-3.406 3.883-3.638c-.391 1.543-2.001 3.989-.122 5.262 1.878 1.274 3.504-1.436 3.756-3.039.972 2.621.825 4.567.3 5.243s-1.701 1.146-2.845 1.146-2.532 3.023-2.532 3.023.64 1.18 1.028 3.185c1.032.421 3.267.827 6.066-1.645-.828 1.861-1.769 2.973-1.769 3.777 0 .803.64 2.487 2.015 2.487-1.514 0-2.39 1.043-2.39 2.099 0 1.057.231 2.281 1.171 3.648-1.863-.819-3.854-2.42-6.197-.518-.697 1.687-1.703 3.471-3.123 5.313-.292 2.724.575 2.237.575 3.585 0 1.347-2.241 3.626-3.868 3.626-.028 0 .028 0 0 0-1.627 0-4.018-2.279-4.018-3.626 0-1.348.867-.861.575-3.585-1.42-1.842-2.426-3.626-3.123-5.313-2.343-1.902-4.334-.301-6.197.518.94-1.367 1.171-2.591 1.171-3.648 0-1.056-.876-2.099-2.389-2.099 1.374 0 2.014-1.684 2.014-2.487 0-.804-.941-1.916-1.769-3.777 2.799 2.472 5.034 2.066 6.066 1.645.388-2.005 1.029-3.185 1.029-3.185s-1.389-3.023-2.533-3.023c-1.143 0-2.32-.47-2.845-1.146-.524-.676-.672-2.622.3-5.243.253 1.603 1.878 4.313 3.757 3.039 1.878-1.273.268-3.719-.122-5.262 1.319.232 2.793 1.599 3.882 3.638 1.09 2.039-2.079 3.793-2.079 3.793l3.031 3.519s1.143-.243 3.151-.247h.024zm7.229 7.026c-1.38 0 .016.026-1.612.026-.648 2.934-3.886 5.605-4.261 5.408v2.82s5.34-1.714 5.873-8.254zm-14.505 0c1.379 0-.017.026 1.611.026.648 2.934 3.887 5.605 4.261 5.408v2.82s-5.339-1.714-5.872-8.254z"/></g></g></g><path d="m374.488 218.897c0-5.387-4.375-9.762-9.763-9.762h-74.961c-5.388 0-9.762 4.375-9.762 9.762v52.326c0 5.388 4.374 9.762 9.762 9.762h74.961c5.388 0 9.763-4.374 9.763-9.762zm-3 0v52.326c0 3.733-3.03 6.762-6.763 6.762h-74.961c-3.732 0-6.762-3.029-6.762-6.762v-52.326c0-3.732 3.03-6.762 6.762-6.762h74.961c3.733 0 6.763 3.03 6.763 6.762z" fill="#1d1d1b"/></g></svg>