<svg clip-rule="evenodd" fill-rule="evenodd" stroke-linejoin="round" stroke-miterlimit="2" viewBox="0 0 92 69" xmlns="http://www.w3.org/2000/svg" xmlns:xlink="http://www.w3.org/1999/xlink"><clipPath id="a"><path clip-rule="evenodd" d="m372.988 218.897c0-4.56-3.703-8.262-8.263-8.262h-74.961c-4.56 0-8.262 3.702-8.262 8.262v52.326c0 4.56 3.702 8.262 8.262 8.262h74.961c4.56 0 8.263-3.702 8.263-8.262z"/></clipPath><g transform="matrix(.99999695 0 0 1 -281.505894 -210.636135)"><path d="m372.988 218.897c0-4.56-3.703-8.262-8.263-8.262h-74.961c-4.56 0-8.262 3.702-8.262 8.262v52.326c0 4.56 3.702 8.262 8.262 8.262h74.961c4.56 0 8.263-3.702 8.263-8.262z" fill="none"/><g clip-path="url(#a)"><path d="m274.597 206.086h106.366v83.446h-106.366z" fill="#1d1d1b" transform="translate(-4.63593 -7.66932)"/><path d="m502.338 151.844 15.304 16.733-17.397-.402-2.278-4.691zm-1.893-2.07-3.985 10.61-3.452-7.105 3.086-8.262zm-5.867-6.415-2.777 7.436-1.852-3.812 2.333-6.135zm-3.429-3.75-2.1 5.521-1.348-2.775 1.583-4.785z" fill="#f4e600" transform="translate(-148.948 110.343)"/><path d="m439.758 128.3-5.542 12.647-4.758 1.618-.561-15.313zm8.182.79-3.582 8.409-6.935 2.358 4.954-11.304zm6.323.61-1.86 5.064-5.503 1.871 3.128-7.343zm1.544.149 2.683.259-.752 2.884-3.509 1.151z" fill="#f4e600" transform="translate(-148.948 110.343)"/><g transform="matrix(.833781 -.552096 .552096 .833781 -201.638 495.973)"><path d="m579.117 45.685 4.094 3.555 1.37 13.39 4.907 9.57 6.269 6.214 24.687 4.954 2.089 4.34-42.235 3.507-44.106-3.444 2.09-4.34 24.687-4.954 6.269-6.214 4.907-9.569 1.37-13.39z" fill="none" transform="matrix(1.02162 0 0 1.03422 -13.4456 -3.18917)"/><g fill="#f4e600"><path d="m576.641 71.953-1.862-2.237 2.093-3.29 3.566.1 1.994 3.284-1.787 2.181zm.77-4.512-1.396 2.196 1.099 1.32 3.061.03 1.035-1.263-1.345-2.214z"/><path d="m1346.72 103.149 5.52.756 8.81 10.774 9.64 5.484 8.89 1.822 23.86-9.652 4.26 2.564-33.98 26.846-39.53 21.907-.7-4.92 18.2-18.197 1.79-8.894-1.28-11.02-6.48-12.318zm-6.69 51.873-4.42 4.416.15 1.055 12.29-6.809-.23-3.205zm15.18-5.309-.39-3.312-6.03 3.516.22 3.232zm-1.58-8.711-.1.518-10.73 10.728 17.79-10.363-.49-.984zm24.94-17.183-8.59-1.761-10.24-5.825-8.55-10.454-2.87-.392-.5 2.605 6.32 12.026 1.37 11.705-1.67 8.276 6.87-.108 1.19 2.387-6.14 3.575.4 3.336 16.45-9.116 14.67-11.588-3.21-1.664-5.58 4.378-1.44-3.35zm1.2.246-.21-.043-1.44 3.802.77 1.787 13.65-10.712zm12.94.126-3.73-1.223-4.05 3.175 3.21 1.662zm3.18-6.644-5.97 4.679 3.73 1.221 10.54-8.328-.93-.558z" transform="matrix(.833781 .552096 -.552096 .833781 -487.729 -785.463)"/><circle cx="549.165" cy="91.662" r="2.771" transform="translate(-.066625 -.427993)"/><circle cx="549.165" cy="91.662" r="2.771" transform="translate(9.19932 .097765)"/><circle cx="549.165" cy="91.662" r="2.771" transform="translate(50.8182 -.463961)"/><circle cx="549.165" cy="91.662" r="2.771" transform="translate(59.2262 -.976925)"/></g><g transform="translate(0 .451948)"><circle cx="579.365" cy="82.05" r="11.72"/><path d="m1366.82 146.081c-3.03-.553-5.84-2.29-7.67-5.056-3.57-5.393-2.09-12.671 3.3-16.242s12.67-2.092 16.24 3.301c3.58 5.393 2.1 12.671-3.3 16.242-2.32 1.54-5 2.141-7.58 1.894l-1-.031zm11.41-14.346-2.85.963.21.975.05.699-.01.525-.04.523-.17.865-.27.803-.31.655-.45.728-.42.52-.52.533-.53.436-.61.402-.61.314-.74.285-.76.194-.76.103-.47.018-.1 2.998c1.87.011 3.75-.511 5.42-1.615 3.66-2.428 5.15-6.92 3.94-10.924zm-14.87 10.796c1.07.742 2.27 1.256 3.52 1.524l.09-3.068-.48-.166-.41-.176-.41-.205-.55-.338zm-3.54-4.56c.25.672.58 1.326 1 1.95.31.469.65.902 1.03 1.298l1.8-2.493-.68-1.052-.31-.665zm7.65-13.028c-1.36.203-2.69.7-3.91 1.507-3.26 2.159-4.8 5.951-4.25 9.582l2.91-.984-.02-.497.03-.602.05-.434.1-.483.11-.424.16-.465.24-.556.41-.716.46-.628.55-.576.61-.517.81-.511.53-.259.7-.256.41-.112v-.001zm7.3 1.843-1.76 2.428.47.398.44.447.4.494.23.318 2.9-.984c-.13-.237-.27-.47-.42-.699-.63-.95-1.4-1.754-2.26-2.402zm-5.3-1.934-.09 2.997.71.087.47.1.68.209 1.8-2.492c-1.12-.525-2.33-.83-3.57-.901z" fill="#f4e600" transform="matrix(.833781 .552096 -.552096 .833781 -487.729 -785.915)"/></g></g></g><path d="m372.988 218.897c0-4.56-3.703-8.262-8.263-8.262h-74.961c-4.56 0-8.262 3.702-8.262 8.262v52.326c0 4.56 3.702 8.262 8.262 8.262h74.961c4.56 0 8.263-3.702 8.263-8.262zm-3 0v52.326c0 2.905-2.358 5.262-5.263 5.262h-74.961c-2.904 0-5.262-2.357-5.262-5.262v-52.326c0-2.904 2.358-5.262 5.262-5.262h74.961c2.905 0 5.263 2.358 5.263 5.262z" fill="#1d1d1b"/></g></svg>