<svg clip-rule="evenodd" fill-rule="evenodd" stroke-linejoin="round" stroke-miterlimit="2" viewBox="0 0 95 72" xmlns="http://www.w3.org/2000/svg" xmlns:xlink="http://www.w3.org/1999/xlink"><clipPath id="a"><path clip-rule="evenodd" d="m372.988 218.897c0-4.56-3.703-8.262-8.263-8.262h-74.961c-4.56 0-8.262 3.702-8.262 8.262v52.326c0 4.56 3.702 8.262 8.262 8.262h74.961c4.56 0 8.263-3.702 8.263-8.262z"/></clipPath><g transform="matrix(.99999695 0 0 1 -280.009569 -209.135)"><path d="m372.988 218.897c0-4.56-3.703-8.262-8.263-8.262h-74.961c-4.56 0-8.262 3.702-8.262 8.262v52.326c0 4.56 3.702 8.262 8.262 8.262h74.961c4.56 0 8.263-3.702 8.263-8.262z" fill="none"/><g clip-path="url(#a)"><path d="m274.597 206.086h106.366v83.446h-106.366z" fill="#1d1d1b" transform="translate(-.196469)"/><g fill="#fae91c" transform="translate(-222.959)"><path d="m516.771 231.69 31.273-10.511 31.145 9.558-12.995 11.949s-9.971-4.507-18.206-4.507-18.101 4.932-18.101 4.932c-3.629-3.135-13.116-11.421-13.116-11.421z"/><path d="m581.543 232.206v14.744s.029 1.296-1.296 1.296-1.562-.879-1.562-1.562v-11.965z" transform="matrix(.851343 0 0 .974179 86.193 6.26396)"/><path d="m575.525 252.571c-.204-.808 1.597-3.24 2.601-3.282 1.003-.042 1.244 1.161 2.317 1.091 1.072-.071.893-1.281 1.656-1.325.762-.043 2.378.7 2.378 2.669s-2.374.059-3.443 4.99c-.359.679-1.36.552-1.36-.012s-.659-2.768-2.187-2.838c-.65-.03-1.524.436-1.962-1.293z"/><path d="m574.586 261.159c0-3.663 1.968-5.921 2.566-5.921s1.075 3.99 3.337 3.99c2.261 0 2.525-4.983 3.442-4.983s3.174 7.225 4.621 8.195c-.306 1.542-3.46 5.651-6.538 5.651-3.077 0-7.428-2.243-7.428-6.932z"/><path d="m530.708 244.731s8.648-4.031 17.315-4.031 16.775 3.539 16.775 3.539v11.029s-6.199-3.167-16.359-3.167c-10.161 0-17.778 3.149-17.778 3.149z"/><path d="m528.128 263.113c0-3.544 1.316-5.53 2.621-5.53 1.306 0 1.822 1.035 1.822 2.347s-2.878 2.044-2.878 4.041c0 1.996 1.188 2.351 2.351 2.351 5.544 0 6.929-9.076 11.303-9.076 2.892 0 4.511 1.608 4.511 4.512s-4.692 8.393-11.503 8.393-8.227-4.278-8.227-7.038z"/><path d="m528.128 263.113c0-3.544 1.316-5.53 2.621-5.53 1.306 0 1.822 1.035 1.822 2.347s-2.878 2.044-2.878 4.041c0 1.996 1.188 2.351 2.351 2.351 5.544 0 6.929-9.076 11.303-9.076 2.892 0 4.511 1.608 4.511 4.512s-4.692 8.393-11.503 8.393-8.227-4.278-8.227-7.038z" transform="matrix(-1 0 0 1 1095.21 0)"/></g></g><path d="m374.488 218.897c0-5.387-4.375-9.762-9.763-9.762h-74.961c-5.388 0-9.762 4.375-9.762 9.762v52.326c0 5.388 4.374 9.762 9.762 9.762h74.961c5.388 0 9.763-4.374 9.763-9.762zm-3 0v52.326c0 3.733-3.03 6.762-6.763 6.762h-74.961c-3.732 0-6.762-3.029-6.762-6.762v-52.326c0-3.732 3.03-6.762 6.762-6.762h74.961c3.733 0 6.763 3.03 6.763 6.762z" fill="#1d1d1b"/></g></svg>