<svg clip-rule="evenodd" fill-rule="evenodd" stroke-linecap="round" stroke-linejoin="bevel" stroke-miterlimit="1.5" viewBox="0 0 92 69" xmlns="http://www.w3.org/2000/svg" xmlns:xlink="http://www.w3.org/1999/xlink"><clipPath id="a"><path clip-rule="evenodd" d="m372.988 218.897c0-4.56-3.703-8.262-8.263-8.262h-74.961c-4.56 0-8.262 3.702-8.262 8.262v52.326c0 4.56 3.702 8.262 8.262 8.262h74.961c4.56 0 8.263-3.702 8.263-8.262z"/></clipPath><g transform="matrix(.99999695 0 0 1 -281.509359 -210.635135)"><path d="m372.988 218.897c0-4.56-3.703-8.262-8.263-8.262h-74.961c-4.56 0-8.262 3.702-8.262 8.262v52.326c0 4.56 3.702 8.262 8.262 8.262h74.961c4.56 0 8.263-3.702 8.263-8.262z" fill="none"/><g clip-path="url(#a)"><path d="m206.65 99.54h95.739v76.043h-95.739z" fill="#1d1d1b" stroke="#000" stroke-width=".5" transform="translate(72.7604 108.588)"/><g fill="#f4e600"><path d="m1090.39 114.91v-5.528c0-1.38 1.12-2.5 2.5-2.5s2.5 1.12 2.5 2.5v7.452c.04.185.06.378.06.576 0 .199-.02.392-.06.577v8.816c0 1.379-1.12 2.5-2.5 2.5s-2.5-1.121-2.5-2.5v-6.893h-5.42v6.893c0 1.379-1.12 2.5-2.5 2.5s-2.5-1.121-2.5-2.5v-17.421c0-1.38 1.12-2.5 2.5-2.5s2.5 1.12 2.5 2.5v5.528z" transform="matrix(.95843 0 0 .947981 -747.342601 115.693561)"/><path d="m241.956 107.66c6.054 0 10.97 4.915 10.97 10.97 0 6.054-4.916 10.97-10.97 10.97-6.055 0-10.97-4.916-10.97-10.97 0-6.055 4.915-10.97 10.97-10.97zm0 4.763c3.425 0 6.207 2.781 6.207 6.207 0 3.425-2.782 6.206-6.207 6.206-3.426 0-6.207-2.781-6.207-6.206 0-3.426 2.781-6.207 6.207-6.207z" transform="matrix(1.00605439 0 0 .99508618 71.838734 110.106161)"/><path d="m1134.19 108.818c1.06-.814 2.53-1.429 4.61-1.429 2.96 0 4.65 1.089 5.67 2.239 1.53 1.721 1.61 3.835 1.6 4.258v.076s0-.027 0-.076v-.015 14.19c0 1.38-1.12 2.5-2.5 2.5s-2.5-1.12-2.5-2.5v-14.19c0-.031 0-.061.01-.091 0 0 0-.618-.53-.994-.38-.272-.95-.397-1.75-.397-1.43 0-2 .799-2.14 1.367v.13.076s0-.027 0-.076v-.015 14.19c0 1.38-1.11 2.5-2.5 2.5-1.23 0-2.26-.897-2.46-2.074-.05-.194-.07-.396-.07-.604v-13.852c0-.133 0-.278.02-.434-.04-.212-.16-.563-.51-.811-.38-.272-.95-.397-1.75-.397-1.69 0-2.17 1.108-2.17 1.642v13.852c0 1.379-1.12 2.5-2.5 2.5s-2.5-1.121-2.5-2.5v-13.852c0-1.185.47-3.353 2.18-4.897 1.08-.965 2.65-1.745 4.99-1.745 2.24 0 3.76.626 4.8 1.429z" transform="matrix(.95843 0 0 .947981 -747.342601 115.693561)"/><path d="m1153.44 121.091c.32 1.216.86 2.112 1.55 2.753 1.41 1.323 3.28 1.566 4.26 1.573.22-.068.46-.104.71-.104 1.54 0 2.09.877 2.2 1.025.57.76.65 1.556.35 2.369-.14.36-.44 1.072-1.44 1.469-.18.07-1 .283-2.2.23-1.98-.087-5.42-.781-7.88-3.503-1.59-1.766-2.84-4.4-2.84-8.4 0-12.384 13.2-10.847 13.2-10.847 1.37.172 2.34 1.422 2.17 2.791-.17 1.37-1.42 2.342-2.79 2.17 0 0-5.66-.799-7.2 3.474h7c1.38 0 2.5 1.12 2.5 2.5s-1.12 2.5-2.5 2.5z" transform="matrix(.95843 0 0 .947981 -747.342601 115.693561)"/><path d="m240.243 135.332 13.795 9.182 14.595-8.533-14.71-9.634z" transform="matrix(1.08683087 0 0 1.04365124 50.76535 102.700912)"/></g><path d="m238.568 138.002 15.366 10.228 16.222-9.484.133-5.447-16.369-10.721-15.336 10.073zm1.675-2.67 13.795 9.182 14.595-8.533-14.71-9.634z" fill="#1d1d1b" transform="matrix(1.08683087 0 0 1.04365124 50.76535 102.700912)"/><path d="m237.531 137.954v16.649l14.154 9.702v-16.918z" fill="#f4e600" transform="matrix(1.10926771 0 0 1.01499378 45.803941 106.581567)"/><path d="m237.531 138.915v15.688l14.154 9.702v-16.918z" fill="#f4e600" transform="matrix(-1.12943308 0 0 1.01499378 612.890967 106.581567)"/><g fill="#1d1d1b"><ellipse cx="254.268" cy="135.347" rx="4.954" ry="2.537" transform="matrix(1.08926528 0 0 1.44095008 50.095312 48.971719)"/><path d="m238.722 151.205c-.358 0-.697.201-.966.567-.346.473-.578 1.233-.578 2.092 0 .86.232 1.62.578 2.092.269.367.608.568.966.568s.698-.201.966-.568c.346-.472.578-1.232.578-2.092 0-.859-.232-1.619-.578-2.092-.268-.366-.608-.567-.966-.567z" transform="matrix(.95843 0 0 .947981 83.36165 115.693561)"/><path d="m243.462 149.922c-.357 0-.697.202-.965.568-.346.472-.579 1.233-.579 2.092s.233 1.62.579 2.092c.268.366.608.567.965.567.358 0 .698-.201.966-.567.346-.472.579-1.233.579-2.092s-.233-1.62-.579-2.092c-.268-.366-.608-.568-.966-.568z" transform="matrix(.95843 0 0 .947981 83.36165 115.693561)"/><path d="m248.543 148.289c-.358 0-.698.202-.966.568-.346.472-.578 1.232-.578 2.092 0 .859.232 1.62.578 2.092.268.366.608.567.966.567s.698-.201.966-.567c.346-.472.578-1.233.578-2.092 0-.86-.232-1.62-.578-2.092-.268-.366-.608-.568-.966-.568z" transform="matrix(.95843 0 0 .947981 83.36165 115.693561)"/><path d="m268.9 151.205c-.357 0-.697.201-.965.567-.346.473-.579 1.233-.579 2.092 0 .86.233 1.62.579 2.092.268.367.608.568.965.568.358 0 .698-.201.966-.568.346-.472.579-1.232.579-2.092 0-.859-.233-1.619-.579-2.092-.268-.366-.608-.567-.966-.567z" transform="matrix(.95843 0 0 .947981 83.36165 115.693561)"/><path d="m268.9 142.678c-.357 0-.697.201-.965.567-.346.473-.579 1.233-.579 2.092 0 .86.233 1.62.579 2.093.268.366.608.567.965.567.358 0 .698-.201.966-.567.346-.473.579-1.233.579-2.093 0-.859-.233-1.619-.579-2.092-.268-.366-.608-.567-.966-.567z" transform="matrix(.95843 0 0 .947981 83.36165 115.693561)"/><path d="m264.16 149.922c-.358 0-.697.202-.966.568-.346.472-.578 1.233-.578 2.092s.232 1.62.578 2.092c.269.366.608.567.966.567s.698-.201.966-.567c.346-.472.578-1.233.578-2.092s-.232-1.62-.578-2.092c-.268-.366-.608-.568-.966-.568z" transform="matrix(.95843 0 0 .947981 83.36165 115.693561)"/><path d="m259.08 148.289c-.358 0-.698.202-.966.568-.346.472-.578 1.232-.578 2.092 0 .859.232 1.62.578 2.092.268.366.608.567.966.567.357 0 .697-.201.965-.567.346-.472.579-1.233.579-2.092 0-.86-.233-1.62-.579-2.092-.268-.366-.608-.568-.965-.568z" transform="matrix(.95843 0 0 .947981 83.36165 115.693561)"/><path d="m259.08 157.489c-.358 0-.698.201-.966.567-.346.473-.578 1.233-.578 2.093 0 .859.232 1.619.578 2.092.268.366.608.567.966.567.357 0 .697-.201.965-.567.346-.473.579-1.233.579-2.092 0-.86-.233-1.62-.579-2.093-.268-.366-.608-.567-.965-.567z" transform="matrix(.95843 0 0 .947981 83.36165 115.693561)"/></g></g></g></svg>