<svg clip-rule="evenodd" fill-rule="evenodd" stroke-linejoin="round" stroke-miterlimit="2" viewBox="0 0 95 72" xmlns="http://www.w3.org/2000/svg" xmlns:xlink="http://www.w3.org/1999/xlink"><clipPath id="a"><path clip-rule="evenodd" d="m372.988 218.897c0-4.56-3.703-8.262-8.263-8.262h-74.961c-4.56 0-8.262 3.702-8.262 8.262v52.326c0 4.56 3.702 8.262 8.262 8.262h74.961c4.56 0 8.263-3.702 8.263-8.262z"/></clipPath><g transform="matrix(.99999695 0 0 1 -279.998557 -209.135835)"><path d="m372.988 218.897c0-4.56-3.703-8.262-8.263-8.262h-74.961c-4.56 0-8.262 3.702-8.262 8.262v52.326c0 4.56 3.702 8.262 8.262 8.262h74.961c4.56 0 8.263-3.702 8.263-8.262z" fill="none"/><g clip-path="url(#a)"><path d="m274.597 206.086h106.366v83.446h-106.366z" fill="#1d1d1b" transform="translate(-.641722 -3.96268)"/><g fill="#f4e600"><path d="m592.941 113.793s8.337-2.861 10.273-3.518c1.937-.657 4.212-.606 5.359.964s5.087 8.413 6.115 9.023c3.331 1.976 5.773 4.64-1.436 2.446-1.338-.408-1.762-.663-2.308-1.639-.547-.976-3.258-4.026-4.086-5.167-.828-1.142-1.838-.526-2.697.151s-6.274 4.138-6.274 4.138l-4.811-4.583s-1.666-1.131-.135-1.815z" transform="translate(-264.782 110.338)"/><path d="m573.125 125.01 4.563 5.66s-5.196 2.478-12.09 2.793c-3.936.12-3.87.254-5.038-1.621-1.167-1.875-3.192-4.632-4.568-9.372-1.978-.557-6.392-6.269-.339-2.85 1.95 1.1 3.036.767 3.478 1.893.479 1.219 2.832 4.64 3.745 5.728.912 1.087 1.862 1.496 3.623.34 1.76-1.157 3.232-1.971 4.21-2.358.977-.388 1.376-1.016 2.416-.213z" transform="translate(-264.782 110.338)"/><path d="m590.978 134.285s-9.551 3.826-12.071 5.331c-2.52 1.504-2.985 3.262-.746 5.433 2.238 2.171 13.099 13.235 14.328 14.464s2.891 1.506 1.596-2.904c-3.063-4.338-5.545-8.823-6.572-10.125-1.026-1.302-.953-2.431.798-2.708 1.75-.278 9-2.725 9-2.725z" transform="translate(-264.782 110.338)"/><path d="m602.822 142.329s1.713-.971 3.765-2.189c1.178-.7 1.992-.483 2.506.327.726 1.143 15.187 18.934 16.544 20.593 1.922 2.348-.002 6.892-3.588 2.911s-19.158-19.181-19.158-19.181-1.75-1.383-.069-2.461z" transform="translate(-264.782 110.338)"/><path d="m597.817 130.945c.928-.665 2.065-.84 3.612.142 1.547.983 2.869 2.216 3.717 3.598.847 1.381-.016 4.564-1.035 4.754-1.019.191-3.083 1.944-5.248-.175-2.164-2.12-4.016-5.047-2.873-6.641 1.144-1.593.899-1.013 1.827-1.678z" transform="translate(-264.782 110.338)"/><path d="m578.517 126.406s5.987 5.445 7.017 6.406c1.03.96 1.986.528 2.661.129.675-.4 7.925-4.617 8.785-5.207.861-.589 1.333-1.395.528-2.565s-4.547-5.881-5.434-6.748-2.114-1.773-2.861.557c-.747 2.331-.873 3.245-2.544 4.605-1.672 1.359-5.44.839-7.139.66-1.455-.153-1.692 1.485-1.013 2.163z" transform="translate(-264.782 110.338)"/><circle cx="577.766" cy="114.358" r="7.298" transform="matrix(1.04024 0 0 1.04024 -287.581 105.736)"/></g></g><path d="m374.488 218.897c0-5.387-4.375-9.762-9.763-9.762h-74.961c-5.388 0-9.762 4.375-9.762 9.762v52.326c0 5.388 4.374 9.762 9.762 9.762h74.961c5.388 0 9.763-4.374 9.763-9.762zm-3 0v52.326c0 3.733-3.03 6.762-6.763 6.762h-74.961c-3.732 0-6.762-3.029-6.762-6.762v-52.326c0-3.732 3.03-6.762 6.762-6.762h74.961c3.733 0 6.763 3.03 6.763 6.762z" fill="#1d1d1b"/></g></svg>