<svg clip-rule="evenodd" fill-rule="evenodd" stroke-linejoin="round" stroke-miterlimit="2" viewBox="0 0 95 72" xmlns="http://www.w3.org/2000/svg" xmlns:xlink="http://www.w3.org/1999/xlink"><clipPath id="a"><path clip-rule="evenodd" d="m372.988 218.897c0-4.56-3.703-8.262-8.263-8.262h-74.961c-4.56 0-8.262 3.702-8.262 8.262v52.326c0 4.56 3.702 8.262 8.262 8.262h74.961c4.56 0 8.263-3.702 8.263-8.262z"/></clipPath><g transform="matrix(.99999695 0 0 1 -280.007282 -209.135)"><path d="m372.988 218.897c0-4.56-3.703-8.262-8.263-8.262h-74.961c-4.56 0-8.262 3.702-8.262 8.262v52.326c0 4.56 3.702 8.262 8.262 8.262h74.961c4.56 0 8.263-3.702 8.263-8.262z" fill="none"/><g clip-path="url(#a)"><path d="m274.597 206.086h106.366v83.446h-106.366z" fill="#1d1d1b" transform="translate(.065182)"/><g fill="#fae91c"><path d="m1377.17 235.494-8.15 4.085-9.09-4.299 7.9-4.271zm10.34-5.185-8.65 4.335-9.4-4.516 8.23-4.453zm-37.09.471 7.96-4.305 7.78 3.732-7.91 4.276v.002zm6.29-5.107-7.97 4.312-8.34-3.947 8.78-3.979zm40.57-.263-8.06 4.044-9.89-4.665 7.23-3.914zm-37.27.184 7.78 3.732 8.22-4.445-7.84-3.698zm-.2-8.35 6.67 3.145-8.14 4.403-7.37-3.541zm16.75-.601 8.23 3.483-7.15 3.869-7.84-3.698zm-1.77-.749-6.67 3.609-6.51-3.072 6.98-3.161z" transform="translate(-1041.31)"/><path d="m1379.48 270.87-8.69 4.321v-9.846l8.69-4.495zm10.1-5.022-8.6 4.276v-10.05l8.6-4.448zm9.55-4.748-8.05 4.002v-10.252l8.05-4.163zm-28.34-7.755 8.69-4.495v10.311l-8.69 4.495zm10.19-5.271v10.311l8.6-4.448v-10.311zm18.15-9.387v10.311l-8.05 4.163v-10.311zm-19.65 8.474-8.69 4.495v-10.175l8.69-4.066zm10.1-14.472v9.248l-8.6 4.448v-9.672zm9.55 4.309-8.05 4.163v-9.174l8.05-3.765z" transform="translate(-1041.31)"/><path d="m1367.69 265.363v9.847l-8.69-4.322v-10.02zm-18.79.503v-10.222l8.6 4.448v10.05zm-1.5-10.998v10.252l-8.05-4.002v-10.412zm20.29-1.505v10.311l-8.69-4.494v-10.312zm-18.79.593 8.6 4.448v-10.312l-8.6-4.448zm-9.55-15.25 8.05 4.162v10.312l-8.05-4.163zm28.34 2.794v10.174l-8.69-4.494v-9.746zm-18.79-8.792 8.6 4.024v9.672l-8.6-4.448zm-1.5-.702v9.174l-8.05-4.163v-8.777z" transform="translate(-1041.31)"/></g><path d="m454.97 233.933c0-5.818 5.844-16.182 19.596-16.182 13.751 0 21.51 9.502 21.51 14.675 0 11.424-16.578 8.329-16.581 18.927 0 3.543-2.971 4.958-5.168 4.958s-5.217-1.723-5.217-4.986c0-9.999 16.977-8.269 16.977-18.862s-7.481-11.363-11.364-11.363c-3.882 0-10.997 2.141-10.997 9.479 4.015 0 5.041 4.481 5.041 5.667 0 1.185-1.383 6.327-6.327 6.327-4.945 0-7.47-5.09-7.47-8.64z" fill="#1d1d1b" transform="translate(-148.307)"/><path d="m465.323 229.274c1.745.449 2.937 1.62 3.717 2.924.934 1.564 1.227 3.317 1.227 4.048 0 .589-.24 1.974-.963 3.412-1.082 2.152-3.189 4.415-6.864 4.415-5.861 0-8.97-5.933-8.97-10.14 0-6.302 6.201-17.682 21.096-17.682 10.249 0 17.347 5.009 20.698 9.873 1.555 2.257 2.312 4.513 2.312 6.302 0 6.419-4.485 8.903-9.143 11.127-1.58.754-3.163 1.485-4.49 2.422-1.705 1.206-2.947 2.782-2.948 5.378-.001 4.592-3.821 6.458-6.668 6.458-2.843 0-6.717-2.263-6.717-6.486 0-2.991 1.254-5.113 3.158-6.799 1.681-1.489 3.913-2.617 6.155-3.749 1.616-.815 3.237-1.635 4.595-2.657 1.771-1.332 3.069-3.026 3.069-5.657 0-3.699-.968-6.051-2.439-7.512-2.205-2.189-5.392-2.351-7.425-2.351-3.074 0-8.607 1.469-9.4 6.674zm-10.353 4.659c0-5.818 5.844-16.182 19.596-16.182 13.751 0 21.51 9.502 21.51 14.675 0 11.424-16.578 8.329-16.581 18.927 0 3.543-2.971 4.958-5.168 4.958s-5.217-1.723-5.217-4.986c0-9.999 16.977-8.269 16.977-18.862s-7.481-11.363-11.364-11.363c-3.882 0-10.997 2.141-10.997 9.479 4.015 0 5.041 4.481 5.041 5.667 0 1.185-1.383 6.327-6.327 6.327-4.945 0-7.47-5.09-7.47-8.64z" fill="#fae91c" transform="translate(-148.307)"/><circle cx="475.64" cy="266.232" fill="#1d1d1b" r="5.264" transform="matrix(1.08169 0 0 1.08169 -187.163 -21.749)"/><path d="m475.64 259.581c-3.671 0-6.651 2.98-6.651 6.651s2.98 6.651 6.651 6.651 6.651-2.98 6.651-6.651-2.98-6.651-6.651-6.651zm0 1.387c2.905 0 5.264 2.359 5.264 5.264 0 2.906-2.359 5.265-5.264 5.265-2.906 0-5.264-2.359-5.264-5.265 0-2.905 2.358-5.264 5.264-5.264z" fill="#fae91c" transform="matrix(1.08169 0 0 1.08169 -187.163 -21.749)"/></g><path d="m374.488 218.897c0-5.387-4.375-9.762-9.763-9.762h-74.961c-5.388 0-9.762 4.375-9.762 9.762v52.326c0 5.388 4.374 9.762 9.762 9.762h74.961c5.388 0 9.763-4.374 9.763-9.762zm-3 0v52.326c0 3.733-3.03 6.762-6.763 6.762h-74.961c-3.732 0-6.762-3.029-6.762-6.762v-52.326c0-3.732 3.03-6.762 6.762-6.762h74.961c3.733 0 6.763 3.03 6.763 6.762z" fill="#1d1d1b"/></g></svg>