<svg clip-rule="evenodd" fill-rule="evenodd" stroke-linejoin="round" stroke-miterlimit="2" viewBox="0 0 34 26" xmlns="http://www.w3.org/2000/svg"><g fill-rule="nonzero"><path d="m0 20.503c0 1.488-1.211 2.695-2.704 2.695h-27.659c-1.493 0-2.704-1.207-2.704-2.695v-20.503c0-1.488 1.211-2.695 2.704-2.695h27.659c1.493 0 2.704 1.207 2.704 2.695z" fill="#1d1d1b" transform="translate(33.067 2.695)"/><g fill="#67abc3"><path d="m0 13.367c0 1.027-.852 1.86-1.902 1.86h-27.203c-1.051 0-1.903-.833-1.903-1.86v-13.366c0-1.028.852-1.861 1.903-1.861h27.203c1.05 0 1.902.833 1.902 1.861z" transform="translate(32.038 2.825)"/><path d="m0-.297c.148 0 .291-.01.427-.028.137-.02.258-.056.362-.111.104-.053.187-.131.251-.229.062-.1.094-.23.094-.39s-.032-.29-.094-.389c-.064-.099-.147-.176-.251-.23-.104-.055-.225-.091-.362-.11-.136-.019-.279-.029-.427-.029h-1.002v1.516zm.354-2.379c.366 0 .678.046.936.138.257.093.467.214.628.365.162.15.28.323.353.517.075.193.112.393.112.601 0 .203-.037.403-.112.599-.073.195-.191.369-.353.519-.161.152-.371.274-.628.366-.258.091-.57.137-.936.137h-1.356v1.813h-1.29v-5.055z" transform="translate(3.889 21.79)"/><path d="m0-5.055v4.12h2.859v.935h-4.149v-5.055z" transform="translate(8.162 24.169)"/><path d="m0 1.147-.739-1.854h-.017l-.764 1.854zm-.074-3.101 2.194 5.055h-1.339l-.444-1.126h-2.193l-.461 1.126h-1.298l2.219-5.055z" transform="translate(14.536 21.068)"/><path d="m0-5.055h1.446l1.372 1.996 1.364-1.996h1.438l-2.178 3.115v1.94h-1.289v-1.968z" transform="translate(15.719 24.169)"/><path d="m0-5.055v.935h-3.097v1.083h2.842v.863h-2.842v1.239h3.162v.935h-4.452v-5.055z" transform="translate(26.014 24.169)"/><path d="m0-.483c.296 0 .518-.056.666-.169.147-.113.222-.298.222-.553 0-.245-.075-.424-.222-.534-.148-.111-.37-.167-.666-.167h-1.413v1.423zm.46-2.286c.263 0 .5.036.711.109s.391.174.542.301c.151.128.266.275.345.443.08.167.119.348.119.541 0 .298-.073.555-.218.772-.145.218-.381.383-.71.496v.014c.159.038.29.095.394.173.104.079.189.17.255.277.066.105.114.222.144.349.03.128.05.255.062.383.005.08.01.175.016.283.005.109.015.22.028.333.014.114.036.221.066.322s.076.188.136.259h-1.29c-.071-.161-.115-.352-.131-.574-.017-.221-.041-.434-.075-.637-.043-.264-.136-.457-.279-.58-.142-.124-.375-.185-.698-.185h-1.29v1.976h-1.29v-5.055z" transform="translate(29.447 21.883)"/></g><path d="m0-1.485h-2.283v-2.017c1.414.028 2.815-.504 2.899-2.115h2.298v9.749h-2.914z" fill="#1d1d1b" transform="translate(15.766 10.211)"/></g></svg>