<svg clip-rule="evenodd" fill-rule="evenodd" stroke-linejoin="round" stroke-miterlimit="2" viewBox="0 0 34 26" xmlns="http://www.w3.org/2000/svg"><g fill-rule="nonzero"><path d="m0 20.503c0 1.488-1.211 2.695-2.703 2.695h-27.66c-1.492 0-2.703-1.207-2.703-2.695v-20.503c0-1.488 1.211-2.695 2.703-2.695h27.66c1.492 0 2.703 1.207 2.703 2.695z" fill="#1d1d1b" transform="translate(33.066 2.695)"/><path d="m0 9.393c0 .235-.322.922-.981.922h-27.088c-.66 0-1.155-.653-1.155-1.149v-9.663c0-.235.05-.425.709-.425h27.913c.66 0 .602.19.602.425z" fill="#b4cb22" transform="translate(31.145 13.16)"/><path d="m0-5.846 5.044-.007.027.028-.009 1.36h-3.81l-.005.87c2.183.759 3.456 1.219 3.824 1.38l-.01.959v.544c0 .079-.585.318-1.753.719h-5.986l-.053-.061.487-1.189.054-.062 4.33.021.01-.511c0-.039-.578-.279-1.736-.716-1.159-.437-1.75-.689-1.772-.754v-1.38c.84-.8 1.292-1.201 1.358-1.201" fill="#b4cb22" transform="translate(4.842 8.685)"/><path d="m0-5.853.086.086.005 1.221-.042.046h-3.967l-.42.962 4.313-.002c0 .125-.192.551-.573 1.281l-3.744-.012.004.923h4.434l.041.041v1.221l-.041.042v.044h-6.427l-.041-.041v-3.958l1.077-1.812.042-.042z" fill="#b4cb22" transform="translate(16.712 8.692)"/><path d="m0-5.853h4.844l.079.081v1.287l-.038.041v.045h-3.445l-.506.829v2.202l2.567-.005v-.952h-.866v-.082l.476-1.081h2.259v3.406l-.079.082h-6.301v-.041h-.042v-4.027c0-.147.35-.742 1.052-1.785" fill="#b4cb22" transform="translate(18.445 8.692)"/><path d="m0-2.888-.003 1.772h1.312l-1.161-1.772zm1.275-1.482 3.562 5.77v.082h-2.072c-.124-.09-.341-.447-.654-1.07h-1.566l-.548-1.196v2.184l-.072.082h-1.671l-.072-.082.004-5.728.034-.042z" fill="#b4cb22" transform="translate(26.117 7.209)"/><g fill="#1d1d1b"><path d="m0-7.654.054.107v.765l.291-.818h1.884l.054.106v7.387l-.027.055v.052h-1.194l-.054-.107v-5.434h-.105l-1.54 5.541h-1.276v-.107l1.62-5.591h-.451l-1.752 5.698h-1.249v-.052l2.23-7.602z" transform="translate(6.733 21.683)"/><path d="m0-3.884-.395.981v2.954h1.641l.455-1.311v-2.624zm3.038-1.858.061.111v4.976l-.729 2.513h-4.162l-.062-.111v-5.083c0-.128.253-.931.761-2.406z" transform="translate(11.319 19.815)"/><path d="m0 7.61-.029-.053c-.511-1.411-.767-2.195-.767-2.358v-5.149l.03-.05h1.43l.01 2.522v2.294l.336.931h1.437l-.005-.931v-2.294l.011-2.522h1.43l.029.05.009 7.56z" transform="translate(15.456 14.073)"/><path d="m0-7.598 3.584-.012.019.036-.006 1.769h-2.707l-.003 1.131c1.549.989 2.455 1.588 2.716 1.796l-.009 1.25v.705c0 .104-.414.414-1.243.935h-4.253l-.038-.08.346-1.546.038-.08 3.077.027.007-.663c0-.054-.411-.364-1.234-.934-.822-.566-1.243-.894-1.259-.979v-1.794c.597-1.042.918-1.561.965-1.561" transform="translate(21.55 21.671)"/><path d="m0-7.61.062.111.002 1.587-.029.058h-2.818l-.298 1.253 3.062-.005c0 .165-.134.72-.405 1.67l-2.66-.017.003 1.201h3.148l.03.051v1.59l-.03.053v.058h-4.564l-.029-.052v-5.147l.764-2.36.032-.051z" transform="translate(29.983 21.683)"/></g></g></svg>