<svg clip-rule="evenodd" fill-rule="evenodd" stroke-linejoin="round" stroke-miterlimit="2" viewBox="0 0 36 25" xmlns="http://www.w3.org/2000/svg"><g fill-rule="nonzero" transform="translate(-9.587)"><path d="m0 19.747c-.996 0-1.807-.849-1.807-1.893v-15.961c0-1.044.811-1.893 1.807-1.893h30.852c.996 0 1.806.849 1.806 1.893v15.961c0 1.044-.81 1.893-1.806 1.893z" fill="#f5e716" transform="translate(11.769 1.544)"/><path d="m0-20.497h-30.852c-1.204 0-2.181 1.016-2.181 2.268v15.961c0 1.252.977 2.268 2.181 2.268h30.852c1.206 0 2.182-1.016 2.182-2.268v-15.961c0-1.252-.976-2.268-2.182-2.268m0 .75c.789 0 1.432.681 1.432 1.518v15.961c0 .837-.643 1.518-1.432 1.518h-30.852c-.789 0-1.431-.681-1.431-1.518v-15.961c0-.837.642-1.518 1.431-1.518z" fill="#1d1d1b" transform="translate(42.62 21.666)"/><path d="m11.995 13.764v-13.171c0-.329.259-.593.578-.593h29.244c.318 0 .578.264.578.593v23.065c0 .328-.26.593-.578.593h-29.244c-.319 0-.578-.265-.578-.593v-7.894h-1.945v-2z" fill="#1d1d1b"/><path d="m0 6.581c0 .094-.239.169-.533.169h-26.997c-.295 0-.533-.075-.533-.169v-6.581c0-.094.238-.169.533-.169h26.997c.294 0 .533.075.533.169z" fill="#f5e716" transform="translate(41.187 1.07)"/><path d="m0 1.367c0 .02-.239.035-.533.035h-26.997c-.295 0-.533-.015-.533-.035v-1.367c0-.02.238-.035.533-.035h26.997c.294 0 .533.015.533.035z" fill="#f5e716" transform="translate(41.187 21.736)"/><g fill="#1d1d1b"><path d="m0 3.102h.335c.219 0 .425-.208.425-.612 0-.383-.206-.598-.425-.598h-.335zm0-2.087h.29c.244 0 .38-.236.38-.501 0-.278-.136-.515-.38-.515h-.29zm-1.197-1.948h1.809c.857 0 1.255.494 1.255 1.238 0 .528-.212 1.002-.721 1.113v.014c.606.063.85.619.85 1.135 0 .862-.386 1.468-1.384 1.468h-1.809z" transform="translate(16.616 2.875)"/><path d="m0-2.936h-.014l-.328 2.108h.67zm-.76-1.016h1.507l1.12 4.968h-1.275l-.122-.87h-.953l-.122.87h-1.276z" transform="translate(20.746 5.893)"/><path d="m0-1.949c0-.563-.097-.73-.328-.73-.367 0-.405.361-.405 1.704s.038 1.705.405 1.705c.296 0 .36-.279.36-1.218h1.159v.369c0 1.392-.753 1.726-1.519 1.726-1.346 0-1.642-.731-1.642-2.582 0-1.9.399-2.581 1.642-2.581 1.082 0 1.487.612 1.487 1.572v.313h-1.159z" transform="translate(24.805 5.4)"/><path d="m0-4.968h1.197v1.906h.014l.889-1.906h1.274l-1.159 2.171 1.301 2.797h-1.366l-.701-1.733-.252.417v1.316h-1.197z" transform="translate(26.539 6.909)"/><path d="m0-5.065v3.583c0 .48.135.605.36.605.226 0 .361-.125.361-.605v-3.583h1.198v3.256c0 1.391-.554 1.809-1.559 1.809s-1.558-.418-1.558-1.809v-3.256z" transform="translate(33.301 7.006)"/><path d="m0-.682h.226c.302 0 .463-.187.463-.605 0-.411-.161-.605-.463-.605h-.226zm-1.197-2.143h1.797c.914 0 1.326.662 1.326 1.531 0 1.015-.534 1.545-1.507 1.545h-.419v1.892h-1.197z" transform="translate(37.044 4.766)"/></g><path d="m0-4.512h-1.31v1.633h1.31c.635 0 1.006-.398 1.006-.817 0-.42-.371-.816-1.006-.816m1.138 6.292-1.667-3.004h-.781v3.004h-2.315v-8.072h3.731c2.09 0 3.214 1.269 3.214 2.596 0 1.1-.793 1.791-1.534 2.109l2.037 3.367z" fill="#f5e716" transform="translate(17.7 17.328)"/><path d="m0-1.949-.847 2.153h1.641zm1.839 5.011-.437-1.202h-2.897l-.463 1.202h-2.421l3.427-8.073h1.785l3.427 8.073z" fill="#f5e716" transform="translate(26.13 16.047)"/><path d="m0 8.072v-3.866l-1.336 3.866h-1.482l-1.336-3.866v3.866h-2.316v-8.072h3.145l1.248 4.036 1.182-4.036h3.21v8.072z" fill="#f5e716" transform="translate(37.814 11.036)"/></g></svg>