<svg clip-rule="evenodd" fill-rule="evenodd" stroke-linejoin="round" stroke-miterlimit="2" viewBox="0 0 34 26" xmlns="http://www.w3.org/2000/svg"><g fill-rule="nonzero"><path d="m0 20.503c0 1.488-1.211 2.695-2.704 2.695h-27.659c-1.493 0-2.704-1.207-2.704-2.695v-20.503c0-1.488 1.211-2.695 2.704-2.695h27.659c1.493 0 2.704 1.207 2.704 2.695z" fill="#1d1d1b" transform="translate(33.067 2.695)"/><path d="m0 13.367c0 1.027-.852 1.86-1.902 1.86h-27.203c-1.051 0-1.903-.833-1.903-1.86v-13.366c0-1.028.852-1.861 1.903-1.861h27.203c1.05 0 1.902.833 1.902 1.861z" fill="#67abc3" transform="translate(32.037 2.825)"/><path d="m0-1.485h-2.283v-2.017c1.414.028 2.815-.504 2.899-2.115h2.298v9.749h-2.914z" fill="#1d1d1b" transform="translate(9.115 10.211)"/></g><path d="m13.817 9.455h4.385v2.297h-4.385z" fill="#1d1d1b"/><g fill-rule="nonzero"><path d="m0 2.856c0 .771.561 1.345 1.331 1.345.84 0 1.429-.602 1.429-1.345 0-.686-.561-1.288-1.429-1.288-.756 0-1.331.56-1.331 1.288m2.676-3.697c-.056-.183-.197-.379-.406-.532-.197-.126-.449-.169-.757-.169-1.065 0-1.597 1.037-1.695 2.003.659-.602 1.373-.756 2.255-.756 1.877 0 3.264 1.205 3.264 3.109 0 2.396-1.681 3.601-4.006 3.601-2.956 0-4.16-2.242-4.16-4.637 0-3.068 1.414-5.337 4.398-5.337 2.101 0 3.362.812 3.67 2.718z" fill="#1d1d1b" transform="translate(21.938 8.041)"/><g fill="#67abc3"><path d="m.226-.378v-.214h.122c.018 0 .035.001.052.004s.031.008.044.015c.013.008.023.019.031.033.007.014.011.032.011.055s-.004.041-.011.055c-.008.014-.018.025-.031.032-.013.008-.027.013-.044.016s-.034.004-.052.004zm-.157-.336v.714h.157v-.256h.165c.045 0 .083-.007.114-.02s.057-.03.077-.051c.019-.021.034-.046.043-.074.009-.027.013-.055.013-.084s-.004-.058-.013-.085-.024-.052-.043-.073c-.02-.021-.046-.039-.077-.052s-.069-.019-.114-.019z" transform="matrix(7.0795 0 0 7.0795 1.029 24.169)"/><path d="m.069-.714v.714h.505v-.132h-.348v-.582z" transform="matrix(7.0795 0 0 7.0795 5.574 24.169)"/><path d="m.249-.276.093-.262h.002l.09.262zm.015-.438-.27.714h.158l.056-.159h.267l.054.159h.163l-.267-.714z" transform="matrix(7.0795 0 0 7.0795 9.595 24.169)"/><path d="m.254-.278v.278h.157v-.274l.265-.44h-.175l-.166.282-.167-.282h-.176z" transform="matrix(7.0795 0 0 7.0795 13.743 24.169)"/><path d="m.069-.714v.714h.542v-.132h-.385v-.175h.346v-.122h-.346v-.153h.377v-.132z" transform="matrix(7.0795 0 0 7.0795 18.288 24.169)"/><path d="m.226-.391v-.201h.172c.036 0 .063.008.081.023.018.016.027.041.027.076 0 .036-.009.062-.027.078s-.045.024-.081.024zm-.157-.323v.714h.157v-.279h.157c.039 0 .068.009.085.026s.029.045.034.082c.004.029.007.059.009.09s.007.058.016.081h.157c-.007-.01-.013-.022-.016-.037-.004-.014-.007-.029-.008-.045-.002-.016-.003-.032-.004-.047s-.001-.029-.002-.04c-.001-.018-.004-.036-.007-.054-.004-.018-.01-.035-.018-.05s-.018-.028-.031-.039-.029-.019-.048-.024v-.002c.04-.016.069-.039.087-.07.017-.031.026-.067.026-.109 0-.027-.005-.053-.014-.077-.01-.023-.024-.044-.042-.062-.019-.018-.041-.032-.066-.043-.026-.01-.055-.015-.087-.015z" transform="matrix(7.0795 0 0 7.0795 22.699 24.169)"/><path d="m.176-.237h-.152c-.001.044.007.082.024.114s.039.058.068.079c.028.021.061.036.098.046.037.009.075.014.114.014.049 0 .092-.006.129-.017s.068-.027.093-.048c.025-.02.043-.044.056-.072s.019-.058.019-.091c0-.04-.009-.073-.025-.099-.017-.025-.038-.046-.061-.061s-.047-.027-.07-.034c-.024-.007-.043-.011-.056-.014-.045-.011-.081-.021-.108-.028-.028-.007-.05-.015-.065-.022-.016-.007-.027-.015-.032-.024s-.008-.02-.008-.034c0-.015.003-.028.01-.038s.015-.018.026-.025c.01-.007.021-.011.034-.014s.025-.004.038-.004c.019 0 .037.002.054.005.016.003.03.009.043.017s.023.019.031.033c.007.014.012.032.013.053h.152c0-.041-.008-.077-.023-.106-.016-.029-.037-.052-.064-.071s-.057-.032-.091-.041c-.035-.008-.071-.012-.108-.012-.032 0-.064.004-.096.013s-.061.022-.086.04-.046.04-.061.067c-.016.027-.024.059-.024.096 0 .033.006.06.019.083.012.023.028.043.048.058s.043.028.068.037c.025.01.051.018.078.025.026.007.052.014.077.02s.048.013.068.021.036.018.049.03c.012.012.018.028.018.047 0 .018-.005.033-.014.044-.009.012-.021.021-.035.028s-.029.011-.045.013c-.016.003-.031.004-.045.004-.021 0-.041-.003-.06-.008-.019-.004-.036-.012-.05-.023-.015-.01-.026-.023-.035-.04s-.013-.037-.013-.061z" transform="matrix(7.0795 0 0 7.0795 27.633 24.169)"/></g></g></svg>