<svg clip-rule="evenodd" fill-rule="evenodd" stroke-linejoin="round" stroke-miterlimit="2" viewBox="0 0 34 26" xmlns="http://www.w3.org/2000/svg"><g fill-rule="nonzero"><path d="m0 20.503c0 1.488-1.211 2.695-2.704 2.695h-27.659c-1.493 0-2.704-1.207-2.704-2.695v-20.503c0-1.488 1.211-2.695 2.704-2.695h27.659c1.493 0 2.704 1.207 2.704 2.695z" fill="#1d1d1b" transform="translate(33.067 2.695)"/><path d="m0 20.107c0 1.027-.852 1.86-1.902 1.86h-27.203c-1.051 0-1.903-.833-1.903-1.86v-20.106c0-1.028.852-1.861 1.903-1.861h27.203c1.05 0 1.902.833 1.902 1.861z" fill="#e47e95" transform="translate(32.037 2.893)"/><g fill="#1d1d1b"><path d="m0 6.566v-6.566h1.458l.944 4.311h.015l.944-4.311h1.458v6.566h-.891v-5.165h-.015l-1.111 5.165h-.785l-1.111-5.165h-.015v5.165z" transform="translate(2.886 4.995)"/><path d="m0 6.566v-6.566h2.855v1.11h-1.813v1.509h1.383v1.11h-1.383v1.728h1.889v1.109z" transform="translate(8.697 4.995)"/><path d="m0 6.566v-6.566h1.458l.944 4.311h.015l.944-4.311h1.458v6.566h-.891v-5.165h-.015l-1.111 5.165h-.785l-1.111-5.165h-.015v5.165z" transform="translate(12.531 4.995)"/><path d="m0 2.674c0 .728.265.928.68.928s.68-.2.68-.928v-2.674c0-.727-.265-.928-.68-.928s-.68.201-.68.928zm-1.042-2.51c0-1.619.709-2.201 1.722-2.201 1.012 0 1.722.582 1.722 2.201v2.346c0 1.619-.71 2.201-1.722 2.201-1.013 0-1.722-.582-1.722-2.201z" transform="translate(19.294 6.941)"/><path d="m0-.854h.536c.461 0 .74-.273.74-.91s-.279-.909-.74-.909h-.536zm1.405 3.71-.906-2.674h-.499v2.674h-1.042v-6.566h1.51c1.254 0 1.851.727 1.851 1.964 0 .819-.242 1.41-.823 1.673l1.026 2.929z" transform="translate(23.58 8.705)"/><path d="m0-1.274.884-2.646h1.11l-1.488 3.911v2.655h-1.042v-2.655l-1.488-3.911h1.11z" transform="translate(28.246 8.915)"/><path d="m0 4.492h.438c.544 0 .831-.382.831-.954 0-.628-.363-.938-.907-.938h-.362zm0-2.928h.362c.469 0 .779-.327.779-.773 0-.482-.235-.791-.725-.791h-.416zm-1.042-2.601h1.465c1.118 0 1.76.564 1.76 1.692 0 .572-.234 1.045-.672 1.363.573.437.8.801.8 1.62 0 1.3-.725 1.891-1.828 1.891h-1.525z" transform="translate(3.868 15.37)"/><path d="m0 1.582h1.035l-.506-2.655h-.015zm-1.488 2.492 1.352-6.566h1.337l1.315 6.566h-.997l-.265-1.382h-1.442l-.295 1.382z" transform="translate(8.139 16.825)"/><path d="m0 2.674c0 .728.265.928.68.928s.68-.2.68-.928v-.437h1.042v.273c0 1.619-.71 2.201-1.722 2.201-1.013 0-1.722-.582-1.722-2.201v-2.346c0-1.619.709-2.201 1.722-2.201 1.012 0 1.722.582 1.722 2.201v.018h-1.042v-.182c0-.727-.265-.928-.68-.928s-.68.201-.68.928z" transform="translate(12.17 16.279)"/><path d="m0 6.566v-6.566h1.042v2.71h.016l1.352-2.71h1.14l-1.405 2.646 1.563 3.92h-1.17l-1.088-2.756-.408.746v2.01z" transform="translate(15.414 14.333)"/><path d="m0-6.657v4.593c0 .628.227.955.732.955.506 0 .741-.327.741-.955v-4.593h1.042v4.603c0 1.445-.71 2.054-1.783 2.054-1.072 0-1.774-.609-1.774-2.054v-4.603z" transform="translate(22.811 20.99)"/><path d="m0-.781h.559c.514 0 .771-.31.771-.928s-.257-.927-.771-.927h-.559zm-1.042 3.674v-6.567h1.503c1.284 0 1.911.728 1.911 1.965s-.627 1.964-1.911 1.964h-.461v2.638z" transform="translate(27.421 18.006)"/></g></g></svg>