<svg clip-rule="evenodd" fill-rule="evenodd" stroke-linejoin="round" stroke-miterlimit="2" viewBox="0 0 34 26" xmlns="http://www.w3.org/2000/svg"><path d="m0 20.503c0 1.488-1.211 2.695-2.704 2.695h-27.659c-1.493 0-2.704-1.207-2.704-2.695v-20.503c0-1.488 1.211-2.695 2.704-2.695h27.659c1.493 0 2.704 1.207 2.704 2.695z" fill="#1d1d1b" fill-rule="nonzero" transform="translate(33.067 2.695)"/><path d="m0 7.708c0 .248.058.448-.602.448h-27.912c-.66 0-.71-.2-.71-.448v-7.708c0-.248.05-.448.71-.448h27.912c.66 0 .602.2.602.448z" fill="#b4cb22" fill-rule="nonzero" transform="translate(31.145 3.381)"/><g fill="#1d1d1b"><path d="m0-3.168v.99h1.75v1.236h-1.75v2.176h-1.16v-5.636h3.209v1.234z" fill-rule="nonzero" transform="translate(4.1 8.822)"/><path d="m6.559 4.42h1.16v5.637h-1.16z"/><g fill-rule="nonzero"><path d="m0 4.466c-.404.499-.855.634-1.372.634-.55 0-.968-.222-1.313-.634-.497-.593-.478-1.385-.478-2.233 0-.847-.019-1.639.478-2.233.345-.411.743-.634 1.313-.634 1.213 0 1.73.943 1.843 1.87h-1.167c-.093-.428-.279-.633-.676-.633-.212 0-.372.11-.458.245-.106.166-.172.356-.172 1.385 0 1.03.066 1.228.172 1.394.086.135.246.237.458.237.245 0 .411-.086.517-.22.132-.159.179-.389.179-.604v-.078h-.696v-1.156h1.85v.783c0 .911-.12 1.441-.478 1.877" transform="translate(11.351 5.004)"/><path d="m0 5.637v-2.232h-1.233v2.232h-1.16v-5.637h1.16v2.169h1.233v-2.169h1.161v5.637z" transform="translate(14.69 4.419)"/><path d="m0-3.168v4.402h-1.16v-4.402h-1.16v-1.234h3.48v1.234z" transform="translate(18.515 8.822)"/></g><path d="m20.018 4.42h1.16v5.637h-1.16z"/><g fill-rule="nonzero"><path d="m0 5.637-1.511-2.834v2.834h-1.16v-5.637h1.014l1.511 2.834v-2.834h1.16v5.637z" transform="translate(24.472 4.419)"/><path d="m0 4.466c-.404.499-.855.634-1.372.634-.551 0-.968-.222-1.313-.634-.497-.593-.478-1.385-.478-2.233 0-.847-.019-1.639.478-2.233.345-.411.743-.634 1.313-.634 1.213 0 1.73.943 1.843 1.87h-1.167c-.093-.428-.279-.633-.676-.633-.212 0-.372.11-.458.245-.106.166-.172.356-.172 1.385 0 1.03.066 1.228.172 1.394.086.135.246.237.458.237.245 0 .411-.086.517-.22.132-.159.179-.389.179-.604v-.078h-.696v-1.156h1.85v.783c0 .911-.12 1.441-.478 1.877" transform="translate(29.118 5.004)"/></g></g><g fill="#b6c815" fill-rule="nonzero"><path d="m0-4.323h-.881v1.564h.881c.427 0 .676-.38.676-.782s-.249-.782-.676-.782m.071 3.27h-.952v2.759h-1.557v-7.735h2.509c1.406 0 2.162 1.217 2.162 2.488s-.756 2.488-2.162 2.488" transform="translate(5.546 20.284)"/><path d="m0-1.868-.569 2.063h1.103zm1.237 4.802-.294-1.152h-1.948l-.311 1.152h-1.628l2.304-7.736h1.201l2.304 7.736z" transform="translate(10.098 19.056)"/><path d="m0-3.475c-.142-.262-.355-.436-.747-.436h-.685v4.346h.685c.392 0 .605-.174.747-.433.125-.218.169-.424.169-1.739 0-1.304-.044-1.521-.169-1.738m1.067 4.845c-.435.532-1.049.76-1.708.76h-2.348v-7.735h2.348c.659 0 1.273.229 1.708.761.739.901.659 1.89.659 3.107s.08 2.205-.659 3.107" transform="translate(16.146 19.859)"/><path d="m0 1.412c-.455 0-.83.404-.83 1.168 0 .765.375 1.168.83 1.168s.83-.403.83-1.168c0-.764-.375-1.168-.83-1.168m0 4.471c-1.455 0-2.694-1.125-2.694-3.303 0-1.053.398-2.019.773-2.984l1.557-4.067h2.047l-1.603 4.023c.159-.072.329-.072.455-.072.988 0 2.159 1.067 2.159 3.1 0 2.178-1.239 3.303-2.694 3.303" transform="translate(21.64 17.232)"/><path d="m0 2.134h-1.342v1.803h1.342c.545 0 .728-.476.728-.908 0-.433-.183-.895-.728-.895m-.103-3.937h-1.239v1.673h1.239c.546 0 .717-.432.717-.837 0-.403-.171-.836-.717-.836m.296 8.003h-3.524v-10.266h3.353c1.683 0 2.581 1.196 2.581 2.971 0 1.167-.637 1.816-.887 2.033.33.259 1.001.793 1.001 2.234 0 1.961-1.08 3.028-2.524 3.028" transform="translate(28.131 16.828)"/></g></svg>