<svg clip-rule="evenodd" fill-rule="evenodd" stroke-linejoin="round" stroke-miterlimit="2" viewBox="0 0 34 26" xmlns="http://www.w3.org/2000/svg"><g transform="translate(-1.876)"><g fill-rule="nonzero"><path d="m0 20.503c0 1.488-1.211 2.695-2.704 2.695h-27.659c-1.493 0-2.704-1.207-2.704-2.695v-20.503c0-1.488 1.211-2.695 2.704-2.695h27.659c1.493 0 2.704 1.207 2.704 2.695z" fill="#1d1d1b" transform="translate(34.943 2.695)"/><path d="m0 2.36v-5.295h1.587l1.028 5.402h.017l1.028-5.402h1.587v8.23h-.97v-6.475h-.017l-1.209 6.475h-.855l-1.209-6.475h-.016l.012 4.87z" fill="#b6c815" transform="translate(4.537 7.2)"/><path d="m0 3.35c0 .912.288 1.163.74 1.163s.74-.251.74-1.163v-3.351c0-.912-.288-1.163-.74-1.163s-.74.251-.74 1.163zm-1.135-3.146c0-2.029.773-2.758 1.875-2.758s1.875.729 1.875 2.758v2.941c0 2.029-.773 2.759-1.875 2.759s-1.875-.73-1.875-2.759z" fill="#b6c815" transform="translate(11.49 6.705)"/><path d="m0 5.448h.395c.625 0 .987-.41.987-1.642v-2.165c0-1.163-.28-1.641-.987-1.641h-.395zm-1.135-6.839h1.579c1.3 0 2.023.776 2.073 2.85v2.53c-.05 2.074-.773 2.85-2.073 2.85h-1.579z" fill="#b6c815" transform="translate(15.747 5.656)"/><path d="m0 8.229v-8.229h3.109v1.39h-1.974v1.892h1.505v1.39h-1.505v2.166h2.056v1.391z" fill="#b6c815" transform="translate(18.77 4.266)"/><path d="m0 8.229v-8.229h1.587l1.028 5.402h.017l1.028-5.402h1.587v8.229h-.97v-6.475h-.017l-1.209 6.475h-.855l-1.209-6.475h-.016v6.475z" fill="#b6c815" transform="translate(22.533 4.266)"/></g><path d="m23.705 20.84c-.255-.072-.451-.173-.604-.28-.379-.266-.593-.735-.609-.773-.055-.084-.095-.197-.089-.343.004-.099.043-.258.132-.449.319-.684 1.382-2.123 1.633-2.338.138-.119.359-.217.635-.272.434-.085 1.045-.079 1.482-.079.327 0 .402-.089.461-.147.061-.06 1.027-1.131 1.844-2.343.516-.765.983-1.584 1.075-2.226.106-.74.104-1.102.032-1.307-.027-.075-.073-.105-.108-.14-.055-.055-.107-.112-.151-.176-.064-.092-.216-.228-.352-.41-.196-.263-.361-.597-.368-.994-.006-.331.094-.715.419-1.143.652-.858 1.381-2.067 1.786-2.441.321-.298.631-.271.807-.176.163.087.621.508 1.003 1.107.374.586.674 1.333.613 2.044-.107 1.249-1.307 5.064-2.987 7.414-.987 1.378-1.945 2.99-2.948 4.096-.759.837-1.56 1.388-2.392 1.465-.056.005-.11.009-.163.012-1.15 1.916-2.966 1.866-3.184 1.853-.831-.004-1.491-.225-2.014-.564-.577.343-1.329.57-2.313.564-.839-.001-1.505-.223-2.031-.564-.577.343-1.329.571-2.313.564v-.001c-.839-.001-1.505-.222-2.032-.564-.576.343-1.329.57-2.312.564-3.627-.023-4.127-3.548-4.127-3.548l-.005-.035v-9.65h1v9.573c.053.294.554 2.644 3.138 2.66.61.004 1.107-.1 1.51-.277-.786-.942-1.041-2.145-1.082-2.657-.046-.56.019-1.413.353-2.008.278-.495.718-.835 1.377-.835.633 0 1.101.318 1.427.787.407.588.569 1.437.569 2.016 0 .543-.181 1.774-1.019 2.723.335.157.733.251 1.206.251l.004.001c.61.004 1.107-.1 1.509-.277-.785-.942-1.041-2.146-1.082-2.657-.046-.561.019-1.414.353-2.008.278-.495.719-.835 1.379-.835.632 0 1.1.317 1.425.787.407.588.569 1.435.57 2.015-.001.544-.182 1.774-1.02 2.724.335.156.734.251 1.206.251h.003c.61.004 1.107-.1 1.51-.277-.785-.942-1.041-2.145-1.082-2.658-.046-.56.019-1.412.353-2.007.278-.495.718-.835 1.378-.835.633 0 1.1.317 1.426.787.407.588.569 1.436.569 2.015 0 .544-.181 1.774-1.019 2.724.335.156.734.251 1.206.251l.041.002s1.111.072 1.972-.956zm-4.023.104c.689-.72.823-1.703.823-2.125 0-.351-.075-.84-.272-1.241-.147-.299-.364-.561-.723-.561-.329 0-.494.247-.596.524-.149.405-.166.896-.139 1.238.034.411.234 1.426.907 2.165zm-4.344 0c.688-.72.823-1.703.824-2.125-.001-.351-.076-.84-.273-1.241-.147-.299-.364-.561-.722-.561-.33 0-.495.247-.597.523-.149.406-.166.897-.138 1.239.033.411.233 1.427.906 2.165zm-4.345 0c.689-.72.824-1.703.824-2.125 0-.351-.075-.84-.272-1.241-.148-.3-.365-.562-.724-.562-.329 0-.494.247-.595.524-.149.405-.166.897-.139 1.239.034.411.234 1.426.906 2.165z" fill="#b6c815"/></g></svg>