<svg clip-rule="evenodd" fill-rule="evenodd" stroke-linejoin="round" stroke-miterlimit="2" viewBox="0 0 34 26" xmlns="http://www.w3.org/2000/svg"><g fill-rule="nonzero"><path d="m0 20.503c0 1.488-1.211 2.695-2.704 2.695h-27.659c-1.493 0-2.704-1.207-2.704-2.695v-20.503c0-1.488 1.211-2.695 2.704-2.695h27.659c1.493 0 2.704 1.207 2.704 2.695z" fill="#1d1d1b" transform="translate(33.067 2.695)"/><path d="m0 7.708c0 .248.058.448-.602.448h-27.912c-.66 0-.71-.2-.71-.448v-7.708c0-.248.05-.448.71-.448h27.912c.66 0 .602.2.602.448z" fill="#b4cb22" transform="translate(31.146 3.381)"/><g fill="#1d1d1b"><path d="m0-4.892 4.222-.006.022.024-.006 1.138h-3.191l-.003.728c1.826.636 2.892 1.02 3.2 1.155l-.009.803v.455c0 .066-.489.266-1.466.601h-5.01l-.045-.05.409-.995.044-.052 3.624.017.009-.427c0-.034-.484-.234-1.454-.6-.97-.365-1.464-.576-1.483-.631v-1.154c.703-.67 1.082-1.006 1.137-1.006" transform="translate(6.75 9.681)"/><path d="m0-4.898.073.072.003 1.022-.035.038h-3.32l-.352.806 3.61-.002c0 .104-.161.461-.479 1.072l-3.134-.01.003.773h3.711l.034.034v1.021l-.034.035v.037h-5.379l-.034-.034v-3.311l.902-1.518.035-.035z" transform="translate(16.684 9.687)"/><path d="m0-4.898h4.054l.067.068v1.078l-.033.034v.037h-2.882l-.425.694v1.843l2.15-.004v-.797h-.725v-.068l.398-.906h1.89v2.851l-.066.068h-5.274v-.034h-.035v-3.37c0-.123.294-.621.881-1.494" transform="translate(18.135 9.687)"/><path d="m0-2.416-.003 1.483h1.098l-.971-1.483zm1.067-1.241 2.981 4.83v.068h-1.734c-.104-.075-.286-.374-.548-.895h-1.31l-.459-1.001v1.828l-.06.068h-1.399l-.06-.068.003-4.795.029-.035z" transform="translate(24.556 8.446)"/></g><g fill="#b6c815"><path d="m0-4.448h-2.773l.487-1.69h7.487v1.69h-2.754v6.138h-2.447z" transform="translate(6.484 20.344)"/><path d="m0-3.624-1.591 2.248 3.431.002-1.36-2.278zm1.577-2.08 2.465 4.349.005 3.327-.088.108h-2.032l-.087-.108v-2.906l-.581 1.193-2.988-.011-.001 1.832h-2.316v-3.477l3.165-4.307z" transform="translate(15.732 19.91)"/><path d="m0-4.165v2.027h2.787l.759-1.039-.709-.988zm4.539-1.81 1.609 3.124-1.609 2.466h-3.927l-.52-1.206h-.046v3.292l-.046.055v.054h-2.175l-.096-.109v-7.567l.045-.053v-.056z" transform="translate(23.209 20.18)"/></g></g></svg>