<svg clip-rule="evenodd" fill-rule="evenodd" stroke-linejoin="round" stroke-miterlimit="2" viewBox="0 0 34 26" xmlns="http://www.w3.org/2000/svg"><g fill-rule="nonzero"><path d="m0 20.503c0 1.488-1.211 2.695-2.704 2.695h-27.659c-1.493 0-2.704-1.207-2.704-2.695v-20.503c0-1.488 1.211-2.695 2.704-2.695h27.659c1.493 0 2.704 1.207 2.704 2.695z" fill="#1d1d1b" transform="translate(33.067 2.695)"/><g fill="#67abc3"><path d="m0 13.367c0 1.027-.852 1.86-1.902 1.86h-27.203c-1.051 0-1.903-.833-1.903-1.86v-13.366c0-1.028.852-1.861 1.903-1.861h27.203c1.05 0 1.902.833 1.902 1.861z" transform="translate(32.037 2.825)"/><path d="m0-.297c.127 0 .25-.01.368-.028.118-.02.222-.056.311-.111.09-.053.162-.131.217-.229.054-.1.081-.23.081-.39s-.027-.29-.081-.389c-.055-.099-.127-.176-.217-.23-.089-.055-.193-.091-.311-.11s-.241-.029-.368-.029h-.864v1.516zm.304-2.379c.316 0 .585.046.807.138.222.093.403.214.542.365.139.15.241.323.304.517.064.193.096.393.096.601 0 .203-.032.403-.096.599-.063.195-.165.369-.304.519-.139.152-.32.274-.542.366-.222.091-.491.137-.807.137h-1.168v1.813h-1.112v-5.055z" transform="translate(3.492 21.79)"/><path d="m0-5.055v4.12h2.463v.935h-3.575v-5.055z" transform="translate(7.174 24.169)"/><path d="m0 1.147-.637-1.854h-.014l-.659 1.854zm-.063-3.101 1.89 5.055h-1.154l-.382-1.126h-1.891l-.396 1.126h-1.119l1.912-5.055z" transform="translate(12.667 21.068)"/><path d="m0-5.055h1.246l1.182 1.996 1.176-1.996h1.238l-1.876 3.115v1.94h-1.111v-1.968z" transform="translate(13.686 24.169)"/><path d="m0-5.055v.935h-2.669v1.083h2.449v.863h-2.449v1.239h2.726v.935h-3.838v-5.055z" transform="translate(22.557 24.169)"/><path d="m0-.483c.255 0 .446-.056.574-.169.127-.113.191-.298.191-.553 0-.245-.064-.424-.191-.534-.128-.111-.319-.167-.574-.167h-1.217v1.423zm.396-2.286c.227 0 .431.036.613.109s.338.174.467.301c.13.128.229.275.297.443.069.167.103.348.103.541 0 .298-.063.555-.188.772-.125.218-.329.383-.612.496v.014c.137.038.251.095.34.173.09.079.163.17.22.277.056.105.097.222.123.349.026.128.044.255.053.383.005.08.01.175.015.283.005.109.013.22.025.333.011.114.03.221.056.322s.065.188.117.259h-1.111c-.062-.161-.1-.352-.114-.574-.014-.221-.035-.434-.064-.637-.037-.264-.117-.457-.24-.58-.123-.124-.324-.185-.602-.185h-1.111v1.976h-1.112v-5.055z" transform="translate(25.516 21.883)"/><path d="m0 2.57c.062.118.143.214.244.287.102.073.221.127.358.162.137.036.278.054.425.054.099 0 .205-.009.318-.025s.219-.048.319-.095c.099-.048.181-.112.248-.196.066-.082.099-.187.099-.314 0-.137-.044-.248-.131-.333-.088-.085-.202-.156-.344-.213-.141-.056-.302-.105-.481-.148-.18-.042-.361-.09-.545-.142-.189-.047-.373-.104-.552-.173-.18-.068-.34-.157-.482-.265-.142-.109-.256-.245-.343-.408-.088-.163-.131-.36-.131-.59 0-.26.055-.486.166-.677s.256-.351.436-.478c.179-.128.382-.221.608-.283.227-.061.454-.092.68-.092.264 0 .518.03.761.088.243.06.459.155.648.287s.339.301.449.506c.111.205.167.454.167.747h-1.076c-.01-.151-.042-.276-.096-.375s-.126-.177-.216-.233c-.09-.057-.192-.097-.308-.121s-.242-.035-.378-.035c-.09 0-.18.009-.269.028-.09.019-.172.052-.245.099s-.133.106-.18.177-.071.16-.071.269c0 .099.019.179.057.241.037.062.112.118.222.17.111.052.265.103.461.155.196.053.452.118.768.198.094.02.225.054.393.103.167.05.334.129.499.237.165.109.308.254.428.436.12.181.181.414.181.697 0 .232-.045.446-.135.645-.089.198-.223.369-.4.512-.177.145-.396.257-.658.337s-.565.12-.91.12c-.278 0-.548-.034-.811-.102-.261-.069-.493-.176-.693-.322-.201-.147-.36-.333-.478-.56s-.175-.495-.17-.807h1.076c0 .17.031.314.092.432" transform="translate(28.971 20.353)"/></g><path d="m0-1.485h-2.283v-2.017c1.414.028 2.815-.504 2.899-2.115h2.298v9.749h-2.914z" fill="#1d1d1b" transform="translate(9.115 10.211)"/></g><g fill="#1d1d1b"><path d="m13.817 9.455h4.385v2.297h-4.385z"/><path d="m0 1.121h2.381v-2.731zm2.381 2.382h-4.328v-2.634l4.454-5.183h2.788v5.435h1.317v2.382h-1.317v1.932h-2.914z" fill-rule="nonzero" transform="translate(20.874 8.908)"/></g></svg>