<svg clip-rule="evenodd" fill-rule="evenodd" stroke-linejoin="round" stroke-miterlimit="2" viewBox="0 0 320 23" xmlns="http://www.w3.org/2000/svg"><g fill="#19161b" fill-rule="nonzero"><path d="m21.858 0 .313.313v2.258l1.693-2.415h11.008l.313.313v21.812l-.157.154v.159h-6.978l-.313-.313v-16.04h-.611l-8.985 16.355h-7.448v-.313l9.456-16.513h-2.634l-10.223 16.826h-7.292v-.159l13.015-22.437z"/><path d="m63.079.125.361.331.016 4.687-.172.171h-16.45l-1.74 3.701 17.875-.015c0 .481-.79 2.121-2.368 4.924l-15.523-.046.016 3.541h18.377l.173.159v4.688l-.173.156v.174h-26.641l-.172-.159v-15.193l4.469-6.962.172-.157z"/><path d="m69.458.125h20.086l.329.314v4.938l-.157.16v.171h-14.284l-2.101 3.182v8.453l10.647-.015v-3.654h-3.591v-.314l1.976-4.156h9.361v13.08l-.329.313h-26.124v-.159h-.172v-15.459c0-.564 1.452-2.851 4.359-6.854z"/><path d="m105.753.125 14.771 22.158v.313h-8.593c-.512-.348-1.416-1.716-2.713-4.11h-6.492l-2.273-4.594v8.39l-.298.313h-6.931l-.298-.313.016-22 .141-.157zm-5.284 5.691-.016 6.808h5.441l-4.814-6.808z"/><path d="m122.136.125h21.482c1.057 1.306 3.397 5.212 7.025 11.712l-7.025 10.759h-21.482l-.392-.33v-21.81zm7.935 4.938v13.063h7.558c.471 0 1.876-2.115 4.218-6.352-2.499-3.98-4.056-6.218-4.673-6.711z"/><path d="m173.079.125 5.537 6.555v2.209l-5.349 5.582 5.815 7.889v.313h-9.359l-7.729-11.07v-.331h5.157l2.494-2.224v-1.427l-2.494-2.07h-7.26v16.732l-.376.313h-7.103l-.188-.159.031-22.155.188-.157z"/><path d="m180.742.125h7.293l.328.314v21.844l-.328.313h-7.293l-.327-.313v-21.844z"/><path d="m218.372.094.313.328v9.111c0 .533-2.941 4.923-8.826 13.171l-11.572.018c-5.417-8.229-8.122-12.462-8.122-12.704l.015-9.924h7.638l.313.328v8.139l6.209 8.624 6.537-8.781v-8.154l.157-.157h7.338z"/><path d="m245.984.125.358.331.018 4.687-.174.171h-16.447l-1.742 3.701 17.876-.015c0 .481-.79 2.121-2.366 4.924l-15.523-.046.014 3.541h18.378l.174.159v4.688l-.174.156v.174h-26.64l-.174-.159v-15.193l4.47-6.962.171-.157z"/><path d="m248.113 16.889h7.025v5.596h-7.025z"/><path d="m278.216 0 .313.313v2.258l1.693-2.415h11.005l.313.313v21.812l-.153.154v.159h-6.979l-.313-.313v-16.04h-.61l-8.986 16.355h-7.446v-.313l9.453-16.513h-2.634l-10.224 16.826h-7.293v-.159l13.018-22.437z"/><path d="m319.435.125.359.331.018 4.687-.174.171h-16.447l-1.742 3.701 17.876-.015c0 .481-.787 2.121-2.366 4.924l-15.523-.046.014 3.541h18.377l.173.16v4.688l-.174.156v.174h-26.639l-.174-.159v-15.194l4.47-6.962.171-.157z"/></g></svg>