<svg clip-rule="evenodd" fill-rule="evenodd" stroke-linecap="square" viewBox="0 0 116 76" xmlns="http://www.w3.org/2000/svg"><g fill="#fff"><path d="m0 0h116v75.4h-116zm1 1v73.4h114v-73.4z"/><path d="m3.807 52.927 30.387-43.778v36.022l24.524-36.022v43.778z" fill-rule="nonzero" transform="matrix(1.00256 0 0 1.00507 .183238 -.195395)"/><path d="m66.036 9.149h14.096v43.777h-14.096z" fill-rule="nonzero" transform="matrix(1.00256 0 0 1.00507 .183238 -.195395)"/><path d="m82.682 52.927h5.891c4.578 0 18.862-5.054 18.968-20.176h-16.265s-.865 6.119-8.594 6.119z" fill-rule="nonzero" transform="matrix(1.00256 0 0 1.00507 .183238 -.195395)"/><path d="m100.954 14.831-12.162 11.296c.256.229.486.466.685.713l14.171-8.87c-.809-1.16-1.723-2.206-2.694-3.139z" fill-rule="nonzero" transform="matrix(1.00256 0 0 1.00507 .183238 -.195395)"/><path d="m85.983 24.567 6.843-14.657c-1.293-.419-2.55-.638-3.711-.695l-4.187 15.085c.371.076.722.162 1.055.267z" fill-rule="nonzero" transform="matrix(1.00256 0 0 1.00507 .183238 -.195395)"/><path d="m104.999 20.199-14.799 7.623c.2.323.362.637.495.933l15.902-4.663c-.418-1.39-.951-2.684-1.598-3.893z" fill-rule="nonzero" transform="matrix(1.00256 0 0 1.00507 .183238 -.195395)"/><path d="m98.879 13.071c-1.141-.847-2.321-1.561-3.502-2.132l-8.441 14.009c.362.162.704.342 1.009.542z" fill-rule="nonzero" transform="matrix(1.00256 0 0 1.00507 .183238 -.195395)"/><path d="m91.076 29.734c.143.505.199.837.199.837h16.265c0-1.332-.133-2.588-.333-3.797z" fill-rule="nonzero" transform="matrix(1.00256 0 0 1.00507 .183238 -.195395)"/><path d="m86.594 9.188h-3.912v14.894c.447 0 .857.029 1.266.066z" fill-rule="nonzero" transform="matrix(1.00256 0 0 1.00507 .183238 -.195395)"/><g fill-rule="nonzero" transform="matrix(.996952 0 0 .945052 .012194 3.77832)"><path d="m11.127 62.665.102.102v.736l.552-.787h3.589l.102.103v7.11l-.051.05v.053h-2.275l-.102-.103v-5.229h-.199l-2.929 5.332h-2.428v-.103l3.082-5.383h-.86l-3.333 5.485h-2.377v-.053l4.242-7.313z"/><path d="m24.564 62.706.118.107.005 1.528-.056.056h-5.362l-.568 1.206 5.827-.005c0 .157-.257.691-.772 1.605l-5.061-.015.005 1.154h5.99l.057.052v1.527l-.057.051v.058h-8.684l-.056-.053v-4.952l1.457-2.27.056-.051h7.101z"/><path d="m26.644 62.706h6.547l.108.102v1.61l-.051.052v.056h-4.657l-.685 1.037v2.755l3.471-.004v-1.191h-1.17v-.103l.644-1.354h3.052v4.264l-.107.103h-8.516v-.053h-.057v-5.039c-.001-.185.473-.93 1.421-2.235z"/><path d="m38.475 62.706 4.815 7.223v.103h-2.801c-.167-.113-.462-.559-.884-1.341h-2.116l-.741-1.497v2.735l-.098.101h-2.26l-.097-.103.005-7.172.046-.051zm-1.722 1.855-.005 2.219h1.774l-1.57-2.219z"/><path d="m43.815 62.706h7.003c.345.426 1.107 1.698 2.29 3.817l-2.29 3.508h-7.003l-.127-.108v-7.109zm2.587 1.609v4.259h2.464c.153 0 .611-.689 1.375-2.07-.814-1.298-1.322-2.027-1.523-2.188h-2.316z"/><path d="m60.423 62.706 1.805 2.137v.72l-1.743 1.82 1.896 2.572v.102h-3.052l-2.52-3.609v-.108h1.682l.813-.725v-.466l-.813-.675h-2.368v5.454l-.122.102h-2.315l-.062-.052.01-7.223.062-.051z"/><path d="m62.921 62.706h2.377l.107.102v7.121l-.107.102h-2.377l-.107-.102v-7.12z"/><path d="m75.188 62.695.102.108v2.97c0 .174-.958 1.604-2.877 4.294l-3.772.005c-1.766-2.683-2.647-4.062-2.647-4.141l.004-3.234h2.49l.103.106v2.653l2.023 2.812 2.131-2.863v-2.657l.052-.051h2.393v-.002z"/><path d="m84.188 62.706.116.107.006 1.528-.057.056h-5.361l-.568 1.206 5.827-.005c0 .157-.258.691-.771 1.605l-5.06-.015.004 1.154h5.991l.057.052v1.527l-.057.051v.058h-8.685l-.057-.053v-4.952l1.457-2.27.056-.051h7.102z"/><path d="m84.883 68.171h2.29v1.824h-2.29z"/><path d="m94.696 62.665.102.102v.736l.552-.787h3.588l.102.103v7.11l-.05.05v.053h-2.274l-.103-.103v-5.229h-.198l-2.93 5.332h-2.428v-.103l3.081-5.383h-.858l-3.333 5.485h-2.378v-.053l4.244-7.313z"/><path d="m108.133 62.706.117.107.006 1.528-.057.056h-5.361l-.568 1.206 5.827-.005c0 .157-.256.691-.771 1.605l-5.061-.015.005 1.154h5.991l.057.052v1.527l-.057.051v.058h-8.685l-.057-.053v-4.952l1.458-2.27.056-.051h7.1z"/></g></g><path d="m4.254 59.684h103.686" fill="none" stroke="#fff" transform="matrix(1.00303 0 0 1 -.266883 1.316)"/></svg>