<svg clip-rule="evenodd" fill-rule="evenodd" stroke-linejoin="round" stroke-miterlimit="2" viewBox="0 0 116 76" xmlns="http://www.w3.org/2000/svg"><path d="m0 0h116v75.4h-116zm75.19 62.697v-.002h-.002l.002.002h-2.393l-.052.051v2.657l-2.131 2.863-2.023-2.812v-2.653l-.103-.106h-2.49l-.004 3.234c0 .079.881 1.458 2.647 4.141l3.772-.005c1.919-2.69 2.877-4.12 2.877-4.294v-2.97zm-14.767.009 1.805 2.137v.72l-1.743 1.82 1.896 2.572v.102h-3.052l-2.52-3.609v-.108h1.682l.813-.725v-.466l-.813-.675h-2.368v5.454l-.122.102h-2.315l-.062-.052.01-7.223.062-.051zm-33.779 0c-.948 1.305-1.422 2.05-1.421 2.235v5.039h.057v.053h8.516l.107-.103v-4.264h-3.052l-.644 1.354v.103h1.17v1.191l-3.471.004v-2.755l.685-1.037h4.657v-.056l.051-.052v-1.61l-.108-.102zm11.831 0 4.815 7.223v.103h-2.801c-.167-.113-.462-.559-.884-1.341h-2.116l-.741-1.497v2.735l-.098.101h-2.26l-.097-.103.005-7.172.046-.051zm56.221-.041.102.102v.736l.552-.787h3.588l.102.103v7.11l-.05.05v.053h-2.274l-.103-.103v-5.229h-.198l-2.93 5.332h-2.428v-.103l3.081-5.383h-.858l-3.333 5.485h-2.378v-.053l4.244-7.313zm-83.569 0 .102.102v.736l.552-.787h3.589l.102.103v7.11l-.051.05v.053h-2.275l-.102-.103v-5.229h-.199l-2.929 5.332h-2.428v-.103l3.082-5.383h-.86l-3.333 5.485h-2.377v-.053l4.242-7.313zm32.688.041h7.003c.345.426 1.107 1.698 2.29 3.817l-2.29 3.508h-7.003l-.127-.108v-7.109zm19.106 0h2.377l.107.102v7.121l-.107.102h-2.377l-.107-.102v-7.12zm-38.357 0 .118.107.005 1.528-.056.056h-5.362l-.568 1.206 5.827-.005c0 .157-.257.691-.772 1.605l-5.061-.015.005 1.154h5.99l.057.052v1.527l-.057.051v.058h-8.684l-.056-.053v-4.952l1.457-2.27.056-.051h7.101zm59.624 0 .116.107.006 1.528-.057.056h-5.361l-.568 1.206 5.827-.005c0 .157-.258.691-.771 1.605l-5.06-.015.004 1.154h5.991l.057.052v1.527l-.057.051v.058h-8.685l-.057-.053v-4.952l1.457-2.27.056-.051h7.102zm23.945 0 .117.107.006 1.528-.057.056h-5.361l-.568 1.206 5.827-.005c0 .157-.256.691-.771 1.605l-5.061-.015.005 1.154h5.991l.057.052v1.527l-.057.051v.058h-8.685l-.057-.053v-4.952l1.458-2.27.056-.051h7.1zm-20.96 5.465v1.824h-2.29v-1.824zm-38.445-3.847c.207.176.712.902 1.513 2.18-.764 1.381-1.222 2.07-1.375 2.07h-2.464v-4.258h2.316zm-11.975.237-.005 2.219h1.774l-1.57-2.219zm-32.999-4.377h104.686v-1h-104.686zm.053-7.257 30.387-43.778v36.022l24.524-36.022v43.778zm78.875 0h5.891c4.578 0 18.862-5.054 18.968-20.176h-16.265s-.865 6.119-8.594 6.119zm-16.646-43.778h14.096v43.777h-14.096zm25.04 20.585c.143.505.199.837.199.837h16.265c0-1.332-.133-2.588-.333-3.797zm13.923-9.535-14.799 7.623c.2.323.362.637.495.933l15.902-4.663c-.418-1.39-.951-2.684-1.598-3.893zm-4.045-5.368-12.162 11.296c.256.229.486.466.685.713l14.171-8.87c-.809-1.16-1.723-2.206-2.694-3.139zm-2.075-1.76c-1.141-.847-2.321-1.561-3.502-2.132l-8.441 14.009c.362.162.704.342 1.009.542zm-12.896 11.496 6.843-14.657c-1.293-.419-2.55-.638-3.711-.695l-4.187 15.085c.371.076.722.162 1.055.267zm.611-15.379h-3.912v14.894c.447 0 .857.029 1.266.066z" fill="#fff"/></svg>