<svg clip-rule="evenodd" fill-rule="evenodd" stroke-linejoin="round" stroke-miterlimit="2" viewBox="0 0 24 22" xmlns="http://www.w3.org/2000/svg"><path d="m20 26.312c0-.127.049.017.154.325.567 1.671 2.782 8.193 7.846 2.979 2.667-2.745 1.432-5.49-3.422-6.319 2.777.474 5.899-.309 6.755-3.38.247-.884.667-6.326.667-7.061 0-3.681-3.217-2.524-5.202-1.029-2.752 2.073-5.712 6.274-6.798 8.529-1.086-2.255-4.046-6.456-6.798-8.529-1.985-1.495-5.202-2.652-5.202 1.029 0 .735.42 6.177.667 7.061.856 3.071 3.978 3.854 6.755 3.38-4.854.829-6.088 3.574-3.422 6.319 5.065 5.214 7.279-1.308 7.846-2.979.105-.308.154-.452.154-.325z" transform="translate(-8 -10.4002)"/></svg>