<?xml version="1.0" encoding="UTF-8" standalone="no"?>
<!DOCTYPE svg PUBLIC "-//W3C//DTD SVG 1.1//EN" "http://www.w3.org/Graphics/SVG/1.1/DTD/svg11.dtd">
<svg width="100%" height="100%" viewBox="0 0 31 32" version="1.1" xmlns="http://www.w3.org/2000/svg" xmlns:xlink="http://www.w3.org/1999/xlink" xml:space="preserve" xmlns:serif="http://www.serif.com/" style="fill-rule:evenodd;clip-rule:evenodd;stroke-linejoin:round;stroke-miterlimit:2;">
    <g transform="matrix(1.00679,0,0,1.00679,-903.543,-777.214)">
        <path d="M912.821,771.974C904.718,771.974 898.081,778.279 897.451,786.29L905.717,789.737C906.419,789.254 907.264,788.973 908.175,788.973C908.257,788.973 908.337,788.975 908.418,788.98L912.095,783.603L912.095,783.527C912.095,780.291 914.703,777.658 917.911,777.658C921.118,777.658 923.727,780.291 923.727,783.527C923.727,786.762 921.118,789.398 917.911,789.398C917.866,789.398 917.822,789.396 917.779,789.396L912.534,793.17C912.538,793.239 912.54,793.309 912.54,793.379C912.54,795.808 910.581,797.784 908.175,797.784C906.061,797.784 904.294,796.263 903.894,794.249L897.981,791.78C899.811,798.315 905.76,803.104 912.819,803.104C921.338,803.104 928.242,796.134 928.242,787.539C928.244,778.944 921.339,771.974 912.821,771.974ZM907.116,795.593L905.222,794.801C905.557,795.507 906.137,796.094 906.91,796.419C908.576,797.122 910.498,796.323 911.193,794.64C911.529,793.826 911.532,792.927 911.199,792.112C910.866,791.294 910.237,790.656 909.43,790.317C908.628,789.98 907.768,789.992 907.014,790.279L908.971,791.1C910.201,791.612 910.783,793.038 910.269,794.281C909.759,795.52 908.345,796.107 907.116,795.593ZM921.786,783.527C921.786,781.372 920.047,779.616 917.911,779.616C915.774,779.616 914.034,781.372 914.034,783.527C914.034,785.683 915.774,787.437 917.911,787.437C920.047,787.437 921.786,785.683 921.786,783.527ZM915.006,783.52C915.006,781.898 916.309,780.583 917.917,780.583C919.525,780.583 920.829,781.899 920.829,783.52C920.829,785.143 919.525,786.457 917.917,786.457C916.309,786.458 915.006,785.143 915.006,783.52Z" style="fill-rule:nonzero;"/>
    </g>
</svg>
