<svg clip-rule="evenodd" fill-rule="evenodd" stroke-linejoin="round" stroke-miterlimit="2" viewBox="0 0 800 352" xmlns="http://www.w3.org/2000/svg"><g fill-rule="nonzero" transform="translate(0 -224.165)"><path d="m38.645 557.056c1.651 0 3.048-1.357 3.286-3.269l8.973-71.123-8.947-72.741c-.266-1.912-1.661-3.28-3.312-3.28-1.693 0-3.136 1.397-3.36 3.28l-7.842 72.741 7.842 71.099c.224 1.909 1.667 3.293 3.36 3.293z"/><path d="m9.059 530.005c1.621 0 2.936-1.261 3.173-3.146l6.955-44.198-6.955-45.024c-.24-1.826-1.552-3.146-3.173-3.146-1.694 0-3.006 1.32-3.246 3.173l-5.813 45 5.813 44.184c.24 1.869 1.552 3.157 3.246 3.157z"/><path d="m74.032 396.384c-.213-2.312-1.907-4-4.008-4-2.085 0-3.781 1.688-3.976 4l-7.496 86.28 7.496 83.131c.195 2.298 1.891 3.965 3.976 3.965 2.101 0 3.795-1.667 4.008-3.965l8.48-83.131z"/><path d="m101.739 573.109c2.458 0 4.448-2.024 4.688-4.669l8.013-85.749-8.013-88.688c-.24-2.664-2.23-4.664-4.688-4.664-2.494 0-4.512 2.002-4.683 4.677l-7.083 88.675 7.083 85.749c.171 2.648 2.189 4.669 4.683 4.669z"/><path d="m133.672 574.501c2.864 0 5.163-2.293 5.4-5.362l-.027.021 7.547-86.469-7.547-82.286c-.213-3.018-2.509-5.346-5.376-5.346-2.906 0-5.192 2.328-5.365 5.37l-6.672 82.264 6.672 86.448c.176 3.067 2.461 5.36 5.368 5.36z"/><path d="m179.019 482.712-7.08-133.792c-.198-3.392-2.84-6.096-6.083-6.096-3.219 0-5.853 2.701-6.051 6.096l-6.266 133.792 6.266 86.448c.198 3.408 2.835 6.075 6.051 6.075 3.245 0 5.885-2.667 6.083-6.075v.024z"/><path d="m198.363 575.376c3.57 0 6.533-2.963 6.701-6.744v.056l6.619-85.955-6.619-164.416c-.168-3.781-3.131-6.744-6.701-6.744-3.654 0-6.59 2.963-6.787 6.744l-5.827 164.416 5.854 85.926c.17 3.754 3.106 6.717 6.76 6.717z"/><path d="m231.053 297.16c-4.021 0-7.266 3.301-7.432 7.464l-5.421 178.136 5.421 85.024c.168 4.141 3.411 7.421 7.432 7.421 4.011 0 7.28-3.253 7.422-7.434v.042l6.152-85.053-6.152-178.136c-.142-4.189-3.414-7.464-7.422-7.464z"/><path d="m264.027 575.376c4.416 0 7.933-3.563 8.098-8.149v.05l5.688-84.514-5.688-184.12c-.168-4.571-3.682-8.15-8.098-8.15-4.443 0-8.014 3.579-8.083 8.15l-5.109 184.12 5.109 84.514c.069 4.536 3.64 8.099 8.083 8.099z"/><path d="m297.272 575.291c4.765 0 8.632-3.902 8.776-8.848v.077l5.235-83.744-5.235-179.437c-.144-4.944-4.011-8.83-8.776-8.83-4.8 0-8.667 3.883-8.808 8.83l-4.6 179.437 4.629 83.704c.112 4.909 3.979 8.811 8.779 8.811z"/><path d="m344.957 482.776-4.738-172.896c-.115-5.333-4.291-9.523-9.47-9.523-5.192 0-9.37 4.19-9.48 9.558l-4.25 172.861 4.25 83.195c.11 5.29 4.286 9.482 9.48 9.482 5.176 0 9.355-4.192 9.47-9.56v.078z"/><path d="m364.485 575.608c5.504 0 10.062-4.579 10.147-10.208v.045l4.301-82.624-4.301-205.741c-.083-5.651-4.64-10.221-10.147-10.221-5.501 0-10.045 4.592-10.157 10.25l-3.824 205.63 3.824 82.709c.112 5.581 4.656 10.16 10.157 10.16z"/><path d="m398.109 247.504c-5.944 0-10.765 4.931-10.864 10.941l-4.445 224.403 4.472 81.403c.072 5.933 4.896 10.848 10.837 10.848 5.854 0 10.766-4.918 10.792-10.947v.099l4.854-81.403-4.854-224.403c-.026-6.032-4.938-10.941-10.792-10.941z"/><path d="m428.853 575.685c.24.022 270.995.15 272.734.15 54.36 0 98.41-44.592 98.41-99.619 0-54.997-44.053-99.597-98.41-99.597-13.491 0-26.344 2.757-38.067 7.752-7.792-89.79-82.173-160.206-172.912-160.206-22.181 0-43.811 4.432-62.915 11.918-7.434 2.906-9.424 5.904-9.482 11.712v316.104c.085 6.106 4.741 11.181 10.642 11.786z"/></g></svg>