<svg clip-rule="evenodd" fill-rule="evenodd" stroke-linejoin="round" stroke-miterlimit="2" viewBox="0 0 651 751" xmlns="http://www.w3.org/2000/svg"><path d="m412.19 118.66c-3.24-1.674-6.394-3.51-9.45-5.5-8.887-5.875-17.036-12.799-24.27-20.62-18.1-20.71-24.86-41.72-27.35-56.43h.1c-2.08-12.21-1.22-20.11-1.09-20.11h-82.44v318.78c0 4.28 0 8.51-.18 12.69 0 .52-.05 1-.08 1.56 0 .23 0 .47-.05.71v.18c-1.763 23.205-14.986 44.064-35.22 55.56-10.394 5.913-22.152 9.016-34.11 9-38.41 0-69.54-31.32-69.54-70s31.13-70 69.54-70c7.271-.007 14.497 1.137 21.41 3.39l.1-83.94c-42.408-5.478-85.23 7.049-118 34.52-14.209 12.346-26.155 27.077-35.3 43.53-3.48 6-16.61 30.11-18.2 69.24-1 22.21 5.67 45.22 8.85 54.73v.2c2 5.6 9.75 24.71 22.38 40.82 10.184 12.923 22.217 24.275 35.71 33.69v-.2l.2.2c39.91 27.12 84.16 25.34 84.16 25.34 7.66-.31 33.32 0 62.46-13.81 32.32-15.31 50.72-38.12 50.72-38.12 11.755-13.629 21.102-29.162 27.64-45.93 7.46-19.61 9.95-43.13 9.95-52.53v-169.12c1 .6 14.32 9.41 14.32 9.41s19.19 12.3 49.13 20.31c21.48 5.7 50.42 6.9 50.42 6.9v-81.84c-10.14 1.1-30.73-2.1-51.81-12.61z" fill-rule="nonzero" transform="matrix(1.5625 0 0 1.5625 -74.9358 -25)"/></svg>