<svg fill="none" height="36" viewBox="0 0 36 36" width="36" xmlns="http://www.w3.org/2000/svg"><g fill="#000"><path d="m7.70717.119384c-3.58598.641154-6.47118 3.295236-7.380721 6.784306-.32803181 1.25994-.3503976 1.99801-.3131213 11.77191.0223659 8.9761.0298212 9.1849.1789263 9.8782.827536 3.7351 3.481616 6.3966 7.253986 7.2764.49205.1118 1.11829.1342 5.15156.1565 4.175.0298 4.6074.0224 4.7192-.0894.1119-.1119.1193-1.5507.1193-17.8629 0-12.09244-.0224-17.788276-.0745-17.89265-.0746-.1341952-.2013-.14165048-4.5701-.1341952-3.54874.0074553-4.61484.0298211-5.08453.1118292zm6.74703 17.892616v15.1044l-3.0343-.0372c-2.79573-.0299-3.09394-.0448-3.65308-.1864-2.4006-.6188-4.18241-2.4677-4.68192-4.8758-.16401-.753-.16401-19.30168-.00745-20.03975.44731-2.09494 1.90109-3.83202 3.86183-4.61482.9841-.39513 1.43887-.43986 4.62972-.44732l2.8852-.00745z"/><path d="m8.3482 7.46278c-.46969.08946-1.18539.44731-1.56561.7828-.78281.67843-1.17048 1.64016-1.11084 2.77332.02982.589.0671.7456.30567 1.2227.3504.7232.87972 1.2525 1.60288 1.6103.49951.2461.62625.2759 1.27485.2983.58897.0223.79772 0 1.19285-.1342 1.6178-.5443 2.5944-2.1173 2.3186-3.7277-.3206-1.91598-2.1397-3.19829-4.0184-2.82552z"/><path d="m21.0671.0521957c-.0298.0223658-.0522 8.1038843-.0522 17.9598043 0 16.2599.0074 17.9075.1193 17.9523.2013.0745 5.9866.0447 6.7023-.0299 3.0268-.3429 5.6958-2.1844 7.1496-4.9204.1864-.3504.4324-.9394.5591-1.3047.4697-1.4016.4548-1.0288.4548-11.7421 0-8.55118-.0149-9.82603-.1193-10.37026-.7381-3.8842-3.6978-6.814127-7.5895-7.485102-.5218-.0894634-1.327-.11182925-3.9214-.11182925-1.7893 0-3.2804.02236585-3.3027.05218695zm7.9622 16.2376043c1.163.3057 2.1173 1.1928 2.505 2.326.246.7008.2386 1.7297-.0075 2.3708-.4547 1.1779-1.3494 2.0055-2.4975 2.3111-1.8638.4846-3.8469-.6411-4.3911-2.49-.1641-.5666-.1566-1.5209.0298-2.1024.5591-1.8265 2.4975-2.9001 4.3613-2.4155z"/></g></svg>