<svg fill="none" height="35" viewBox="0 0 45 35" width="45" xmlns="http://www.w3.org/2000/svg"><path d="m16.8456 0v32.6534l7.3406 2.3466v-27.38515c0-1.28403.57-2.14191 1.4887-1.84417 1.1925.33497 1.425 1.51478 1.425 2.80067v10.93285c4.5769 2.2201 8.1787-.0037 8.1787-5.8656 0-6.02375-2.1112-8.69974-8.3212-10.84351-2.4506-.83369-6.9899-2.207042-10.1061-2.79509zm8.73 30.223 11.8049-4.2335c1.3406-.4801 1.5487-1.1631.4612-1.5222-1.0987-.3573-3.0693-.2587-4.4193.2288l-7.8843 2.7914v-4.442l.45-.1582s2.2518-.7815 5.4618-1.1444c3.18-.335 7.0968.0558 10.1943 1.23 3.465 1.1184 3.825 2.7393 2.955 3.8558-.8719 1.1166-3.0413 1.9279-3.0413 1.9279l-16.0198 5.7819v-4.2727zm-22.18672-.441c-3.562474-1.0142-4.15122-3.104-2.534983-4.3173 1.501863-1.0905 4.049963-1.9577 4.049963-1.9577l10.52804-3.746v4.3043l-7.54681 2.7393c-1.32187.5043-1.54686 1.176-.44812 1.5371 1.09874.3628 3.06933.2791 4.39313-.2233l3.6337-1.3138v3.8595c-.225.0558-.48.0819-.7313.1358-3.6356.616-7.49241.3648-11.32112-.8914z" fill="#000"/></svg>