<svg clip-rule="evenodd" fill-rule="evenodd" stroke-linejoin="round" stroke-miterlimit="2" viewBox="0 0 700 700" xmlns="http://www.w3.org/2000/svg"><g fill-rule="nonzero" transform="translate(-50 -50)"><path d="m545.828 108.328c79.917.239 145.605 65.927 145.844 145.844v291.656c-.239 79.917-65.927 145.605-145.844 145.844h-291.656c-79.917-.239-145.605-65.927-145.844-145.844v-291.656c.239-79.917 65.927-145.605 145.844-145.844zm0-58.328h-291.656c-112.297 0-204.172 91.875-204.172 204.172v291.656c0 112.297 91.875 204.172 204.172 204.172h291.656c112.297 0 204.172-91.875 204.172-204.172v-291.656c0-112.297-91.875-204.172-204.172-204.172z"/><path d="m589.578 254.172c-24 0-43.75-19.75-43.75-43.75 0-24.001 19.75-43.75 43.75-43.75 24.001 0 43.75 19.749 43.75 43.75v.094c0 23.949-19.707 43.656-43.656 43.656-.031 0-.063 0-.094 0z"/><path d="m400 283.328c64.004 0 116.672 52.668 116.672 116.672s-52.668 116.672-116.672 116.672-116.672-52.668-116.672-116.672c.069-63.978 52.694-116.603 116.672-116.672m0-58.328c-96.002 0-175 78.998-175 175s78.998 175 175 175 175-78.998 175-175-78.998-175-175-175z"/></g></svg>