<svg enable-background="new 0 0 49.2 49.2" viewBox="0 0 49.2 49.2" xmlns="http://www.w3.org/2000/svg"><path d="m24.6 0c-13.6 0-24.6 11-24.6 24.6s11 24.6 24.6 24.6 24.6-11 24.6-24.6-11-24.6-24.6-24.6zm10 36.2c-.4 0-.7-.1-1-.4-3.6-2.2-8-3.3-12.7-3.3-2.6 0-5.3.3-7.8.9-.4.1-.9.2-1.2.2-.9 0-1.6-.7-1.6-1.5 0-1 .6-1.5 1.3-1.7 3-.7 6.1-1.1 9.2-1.1 5.4 0 10.2 1.2 14.3 3.7.6.4 1 .7 1 1.6-0 1-.7 1.6-1.5 1.6zm2.7-6.5c-.5 0-.9-.2-1.2-.4-4-2.4-9.6-4-15.6-4-3.1 0-5.8.4-8 1-.5.1-.7.3-1.2.3-1.1 0-1.9-.9-1.9-1.9s.5-1.8 1.5-2.1c2.8-.8 5.6-1.3 9.7-1.3 6.4 0 12.7 1.6 17.6 4.5.8.5 1.1 1.1 1.1 1.9-.1 1.2-.9 2-2 2zm3-7.6c-.5 0-.8-.1-1.3-.4-4.5-2.7-11.4-4.1-18.1-4.1-3.3 0-6.7.3-9.8 1.2-.4.1-.8.3-1.3.3-1.3 0-2.3-1-2.3-2.4 0-1.3.8-2.1 1.7-2.4 3.5-1 7.4-1.5 11.7-1.5 7.2 0 14.8 1.5 20.4 4.7.7.4 1.3 1.1 1.3 2.2.1 1.5-1 2.4-2.3 2.4z"/></svg>