<svg clip-rule="evenodd" fill-rule="evenodd" stroke-linejoin="round" stroke-miterlimit="2" viewBox="0 0 65 65" xmlns="http://www.w3.org/2000/svg"><path d="m17.957 46.587c0 .028.023.05.05.05h6.347c.028 0 .05-.022.05-.05v-19.095c0-.028-.022-.05-.05-.05h-6.347c-.027 0-.05.022-.05.05zm16.307-16.556v-2.539c0-.028-.022-.05-.05-.05h-6.35c-.013 0-.026.006-.036.015-.009.01-.014.024-.014.037.085 1.791 0 19.092 0 19.092 0 .013.006.026.015.035.009.01.022.015.035.015h6.349c.028 0 .05-.022.05-.05v-10.664c0-.566.042-1.125.208-1.529.453-1.126 1.48-2.29 3.209-2.29.905 0 1.592.274 2.09.766.753.743 1.076 1.978 1.076 3.501v10.217c0 .028.023.05.05.05h6.348c.028 0 .05-.022.05-.05v-11.02c-.012-2.912-.799-5.049-2.1-6.46-1.315-1.426-3.154-2.114-5.258-2.114-3.279 0-4.805 1.74-5.672 3.038zm-13.125-5.095h.068c2.231-.012 3.615-1.498 3.615-3.35v-.001c-.042-1.893-1.385-3.337-3.574-3.348h-.026c-2.203 0-3.642 1.449-3.642 3.349 0 1.86 1.398 3.35 3.559 3.35z" fill-rule="nonzero" transform="matrix(2.19176 0 0 2.19176 -38.6572 -38.6572)"/></svg>