<svg fill="none" height="34" viewBox="0 0 28 34" width="28" xmlns="http://www.w3.org/2000/svg"><path d="m14.2177 9.76927c-1.3577 0-3.4588-1.52716-5.6716-1.47333-2.92174.03825-5.6 1.67591-7.10526 4.26976-3.03202 5.2063-.781998 12.8959 2.17554 17.1274 1.45085 2.0598 3.16236 4.3775 5.431 4.3053 2.17702-.0921 2.99332-1.3983 5.63582-1.3983 2.6224 0 3.3657 1.3982 5.6716 1.343 2.3445-.0368 3.8326-2.0967 5.2648-4.1763 1.6557-2.3913 2.3432-4.7104 2.3804-4.8379-.0559-.0184-4.5573-1.7297-4.6118-6.8807-.0372-4.3066 3.552-6.3664 3.7195-6.4585-2.0466-2.96084-5.1889-3.29234-6.2874-3.36601-2.8645-.221-5.2635 1.54558-6.6026 1.54558zm4.8381-4.34347c1.2073-1.43366 2.0051-3.43823 1.7831-5.4258-1.7287.0736662-3.8126 1.14041-5.0586 2.57548-1.1172 1.26933-2.0825 3.31215-1.8233 5.26147 1.9164.14733 3.8885-.97466 5.0973-2.40974" fill="#000"/></svg>