<svg fill="none" height="35" viewBox="0 0 35 35" width="35" xmlns="http://www.w3.org/2000/svg"><path d="m5.98209 30.6731c3.18532 2.7951 7.28011 4.3333 11.51791 4.3269 4.2394.0061 8.336-1.532 11.5237-4.3269 2.7373-2.7883-6.2941-12.7006-11.5237-16.6498-5.2237 3.9492-14.26103 13.8615-11.51791 16.6498zm16.27501-21.00873c3.6458 4.31813 10.9141 15.03983 8.8608 18.83003 2.5176-3.1084 3.8884-6.9886 3.8821-10.9886.0032-2.3168-.4555-4.611-1.3495-6.7485-.8939-2.13739-2.2051-4.07511-3.8568-5.6998 0 0-.0393-.03209-.1195-.06125-.1318-.04548-.2705-.06768-.4098-.06563-.8634 0-2.8948.63292-7.0073 4.73375zm-16.92834-4.66812c-.08312.02916-.11958.05979-.12542.06125-1.65077 1.62523-2.96113 3.56312-3.85453 5.7005-.8934 2.1373-1.35192628 4.4313-1.34879406 6.7478 0 4.1621 1.45541406 7.9815 3.88062406 10.9856-2.04313-3.7989 5.21937-14.5118 8.86666-18.82703-4.1125-4.10229-6.14833-4.73229-7.00875-4.73229-.13969-.00495-.27897.01785-.40979.06708zm12.17124.18229s-4.2948-2.51271-7.64895-2.63229c-1.31688-.04813-2.12042.43021-2.21812.49437 3.12807-2.098537 6.45307-3.04062 9.84377-3.04062h.0233c3.4037 0 6.7156.942083 9.8671 3.04062-.0992-.06708-.8969-.5425-2.2167-.49437-3.3542.11958-7.6504 2.62354-7.6504 2.62354z" fill="#000"/></svg>