<svg clip-rule="evenodd" fill-rule="evenodd" stroke-linejoin="round" stroke-miterlimit="2" viewBox="0 0 32 22" xmlns="http://www.w3.org/2000/svg"><path d="m1891.69 49.288c-.35-1.335-1.4-2.386-2.74-2.743-2.42-.648-12.12-.648-12.12-.648s-9.7 0-12.12.648c-1.33.357-2.38 1.408-2.74 2.743-.65 2.419-.65 7.467-.65 7.467s0 5.047.65 7.466c.36 1.335 1.41 2.385 2.74 2.742 2.42.649 12.12.649 12.12.649s9.7 0 12.12-.649c1.34-.357 2.39-1.407 2.74-2.742.65-2.419.65-7.466.65-7.466s0-5.048-.65-7.467m-17.96 12.119v-9.306l8.06 4.654z" fill-rule="nonzero" transform="translate(-1861.32 -45.8966)"/></svg>