<svg clip-rule="evenodd" fill-rule="evenodd" stroke-linejoin="round" stroke-miterlimit="2" viewBox="0 0 35 32" xmlns="http://www.w3.org/2000/svg"><path d="m990.572 803.228h-28.471c-1.685 0-3.049-1.367-3.049-3.05v-25.422c0-1.685 1.365-3.05 3.049-3.05h28.472c1.685 0 3.051 1.366 3.051 3.05v25.422c0 1.684-1.368 3.05-3.052 3.05zm-27.455-6.61c0 .841.683 1.524 1.526 1.524h5.592v-2.033h-4.575c-.281 0-.508-.226-.508-.507v-3.052c0-.279.227-.508.508-.508h4.575v-2.033h-5.592c-.843 0-1.526.681-1.526 1.524zm8.136-18.303c0-.843-.684-1.525-1.525-1.525h-5.085c-.843 0-1.526.682-1.526 1.525v5.084c0 .842.683 1.524 1.526 1.524h3.559v-2.032h-2.542c-.281 0-.508-.228-.508-.509v-3.05c0-.281.227-.508.508-.508h3.051c.28 0 .507.227.507.508v6.1c0 .282-.227.51-.507.51h-5.594v2.034h6.609c.842 0 1.526-.684 1.526-1.527v-8.134zm0 13.218v5.085c0 .841.684 1.524 1.525 1.524h5.084c.842 0 1.525-.683 1.525-1.524v-5.085c0-.843-.683-1.524-1.525-1.524h-5.084c-.841 0-1.525.681-1.525 1.524zm9.151-13.218c0-.843-.684-1.525-1.527-1.525h-5.083c-.842 0-1.525.682-1.525 1.525v5.084c0 .842.683 1.524 1.525 1.524h5.083c.843 0 1.526-.681 1.526-1.524v-5.084zm9.151 0c0-.843-.684-1.525-1.524-1.525h-5.085c-.842 0-1.525.682-1.525 1.525v5.084c0 .842.683 1.524 1.525 1.524h3.559v-2.032h-2.543c-.28 0-.507-.228-.507-.509v-3.05c0-.281.227-.508.507-.508h3.05c.282 0 .509.227.509.508v6.1c0 .282-.227.51-.509.51h-5.592v2.034h6.609c.841 0 1.525-.684 1.525-1.527v-8.134zm0 11.694h-7.626c-.843 0-1.525.681-1.525 1.524v6.609h2.035v-5.592c0-.279.226-.508.507-.508h1.016v6.1h2.034v-6.1h1.525v6.1h2.034zm-11.693-7.118h-3.05c-.282 0-.51-.228-.51-.509v-3.05c0-.281.228-.508.51-.508h3.05c.28 0 .508.227.508.508v3.05c0 .281-.228.509-.508.509zm-4.068 9.151h3.051c.28 0 .508.229.508.508v3.052c0 .281-.228.507-.508.507h-3.051c-.281 0-.509-.226-.509-.507v-3.052c.002-.279.228-.508.509-.508z" fill-rule="nonzero" transform="translate(-959.052 -771.706)"/></svg>