<svg clip-rule="evenodd" fill-rule="evenodd" stroke-linejoin="round" stroke-miterlimit="2" viewBox="0 0 20 23" xmlns="http://www.w3.org/2000/svg"><path d="m25.504 19.16c-.099-.047-.2-.093-.302-.137-.177-3.271-1.965-5.144-4.966-5.163h-.041c-1.795 0-3.288.766-4.207 2.161l1.651 1.132c.686-1.042 1.764-1.264 2.557-1.264h.027c.989.007 1.734.294 2.217.854.351.408.586.972.702 1.683-.876-.149-1.823-.194-2.836-.136-2.854.164-4.688 1.828-4.565 4.141.063 1.173.647 2.182 1.646 2.841.844.557 1.931.83 3.061.768 1.492-.082 2.663-.651 3.48-1.692.62-.791 1.012-1.815 1.186-3.106.711.429 1.238.994 1.529 1.673.495 1.154.524 3.051-1.024 4.597-1.356 1.354-2.986 1.941-5.449 1.959-2.732-.021-4.799-.897-6.142-2.605-1.258-1.599-1.908-3.909-1.933-6.866.025-2.957.675-5.267 1.933-6.866 1.343-1.708 3.41-2.584 6.142-2.605 2.752.021 4.855.901 6.25 2.617.684.842 1.2 1.9 1.54 3.135l1.934-.517c-.412-1.519-1.061-2.827-1.943-3.913-1.788-2.2-4.404-3.328-7.774-3.351h-.013c-3.364.023-5.95 1.155-7.687 3.364-1.546 1.965-2.344 4.7-2.371 8.128v.016c.027 3.428.825 6.163 2.371 8.128 1.737 2.209 4.323 3.341 7.687 3.364h.013c2.99-.021 5.098-.804 6.834-2.538 2.272-2.27 2.203-5.114 1.454-6.861-.537-1.252-1.561-2.269-2.961-2.941zm-5.163 4.854c-1.25.07-2.55-.491-2.614-1.693-.047-.892.635-1.887 2.691-2.005.235-.014.467-.02.694-.02.746 0 1.445.072 2.08.211-.236 2.959-1.626 3.44-2.851 3.507z" transform="translate(-10.106 -8.5)"/></svg>