<svg clip-rule="evenodd" fill-rule="evenodd" stroke-linejoin="round" stroke-miterlimit="2" viewBox="0 0 27 32" xmlns="http://www.w3.org/2000/svg"><path d="m848.5 781.904c.277-.037.442-.333.419-.597.005-1.053.008-2.108-.003-3.16.024-.268-.14-.537-.41-.593-.33-.047-.668-.017-1-.017.002 1.464-.006 2.93.002 4.395.33-.009.662.014.992-.028zm-1.96 8.698c-.16.334-.297.677-.416 1.027h.822c-.134-.342-.274-.685-.406-1.027zm-8.572 7.424c3.845 1.619 7.699 3.22 11.542 4.843.219.084.449.124.681.124.371 0 .745-.101 1.077-.273 3.754-1.596 7.527-3.151 11.283-4.741.527-.201.931-.651 1.07-1.196.083-1.361.024-2.729.042-4.091-.001-6.219.001-12.437-.001-18.655-.012-.623-.108-1.323-.597-1.763-.47-.429-1.146-.49-1.752-.504h-22.137c-.62.004-1.3.061-1.796.473-.511.441-.619 1.161-.635 1.798.001 7.265 0 14.532 0 21.797.008.347.006.699.072 1.04.169.552.624.946 1.151 1.148zm6.57-4.96c.531-1.209 1.024-2.433 1.552-3.643.304.002.608.002.909.002.489 1.219 1.035 2.414 1.517 3.637-.337.001-.673.001-1.01.008-.087-.225-.177-.448-.264-.671-.232-.005-.466-.007-.699-.007-.244 0-.487.002-.732.007-.082.222-.153.453-.278.659-.13.008-.259.012-.387.012-.164 0-.33-.005-.495-.005-.036 0-.074.001-.113.001zm5.582 7.397c-1.716-.541-3.41-1.16-5.114-1.74 1.776-.009 3.554-.015 5.331-.015 1.682 0 3.364.006 5.044.018-1.748.592-3.505 1.17-5.261 1.737zm8.977-7.493c-.268.11-.554.161-.842.161-.583 0-1.174-.213-1.624-.581.176-.223.359-.44.544-.654.324.235.716.424 1.118.424.103 0 .208-.013.311-.039l.209-.244c-.394-.472-1.105-.328-1.583-.669-.655-.38-.526-1.439.111-1.771.269-.142.563-.205.858-.205.508 0 1.022.184 1.435.469-.167.231-.331.464-.492.698-.286-.18-.616-.345-.956-.345-.08 0-.158.008-.239.027-.187.029-.216.241-.134.385.525.279 1.196.235 1.644.662.507.49.27 1.419-.36 1.682zm-4.658-15.674c.095-.536.444-1.022.938-1.255.43-.201.897-.226 1.365-.226.171 0 .344.003.516.003.048 0 .097-.001.145-.001.034 0 .073-.001.107-.001.574 0 1.182.12 1.602.536.43.403.54 1.022.549 1.587.002.846-.005 1.69 0 2.533-.327 0-.66.004-.989.004-.269 0-.537-.002-.805-.011.013-.805.013-1.608.005-2.415.012-.281-.187-.578-.482-.604-.127-.009-.254-.017-.382-.017-.165 0-.329.013-.489.058-.252.116-.339.414-.329.673.001 2.532-.005 5.066.004 7.598-.012.279.174.564.461.603.14.015.281.025.425.025.14 0 .285-.01.427-.037.26-.066.413-.342.398-.602.005-.918.01-1.838-.004-2.757.321-.005.643-.009.964-.009.281 0 .563.003.844.011-.01.957.006 1.914-.006 2.871-.013.674-.216 1.427-.823 1.804-.458.297-.992.333-1.525.333-.181 0-.363-.004-.539-.004-.056 0-.112 0-.166.002h-.097c-.629 0-1.314-.144-1.725-.655-.425-.497-.458-1.181-.471-1.803v-6.185c.011-.688-.046-1.381.082-2.059zm-1.009 12.165h1.42c.475 0 .952 0 1.427-.004 0 .273.003.544.005.818-.263 0-.525.001-.79.001-.371 0-.744-.001-1.114-.004 0 .196.003.396.005.595h.762c.312 0 .626 0 .939-.002-.001.257-.001.513 0 .77-.259.005-.518.006-.778.006h-.931v.589c.379 0 .754.004 1.133.004.262 0 .523-.001.784-.008.004.279.01.559.013.837-.214.002-.429.003-.644.003-.404 0-.805-.003-1.208-.003-.338 0-.678.002-1.013.008-.024-1.201-.008-2.406-.01-3.61zm-1.848-13.547c.151.001.303.002.455.002.22 0 .44-.001.661-.001.241 0 .482.001.726.006-.02 3.99.005 7.982-.013 11.969-.61-.005-1.22-.001-1.832-.003.011-3.99-.001-7.98.003-11.973zm.102 13.549c.34-.001.68-.002 1.018-.002-.013 1.204.007 2.409-.013 3.613-.247-.004-.496-.007-.743-.007h-.202c-.009-.705.009-1.408-.011-2.112-.307.482-.615.963-.937 1.438-.313-.466-.592-.953-.925-1.403-.008.692-.001 1.384-.005 2.076-.114.001-.229.001-.344.001-.203 0-.408-.001-.61-.005.002-1.196.007-2.391-.006-3.588h.01c.205 0 .416-.022.624-.022.14 0 .281.01.417.044.296.446.568.909.842 1.368.313-.452.584-.938.885-1.401zm-6.001-13.549c.313.004.624.004.937.004h1.137c.313 0 .625 0 .936.003.568.008 1.175.167 1.567.605.397.44.507 1.057.497 1.631-.006 1.121.004 2.241-.006 3.363-.001.66-.255 1.368-.851 1.719-.46.271-.981.315-1.505.315-.243 0-.488-.009-.728-.009h-.161c0 1.45.002 2.899 0 4.347-.266-.003-.531-.003-.796-.003h-1.032c.001-3.992-.01-7.984.005-11.975zm-4.954.002c.655.005 1.311.009 1.969.009.689 0 1.38-.004 2.069-.007-.002.551-.002 1.103 0 1.655-.28-.001-.56-.001-.84-.001-.462 0-.927 0-1.392.001-.014 1.129.012 2.258.021 3.386.707-.001 1.415 0 2.123-.001.006.556.002 1.115 0 1.67-.354.004-.708.005-1.061.005s-.706-.001-1.059-.001c-.068 1.205.006 2.416-.041 3.624.3-.019.601-.024.901-.024.285 0 .568.004.854.004.173 0 .35 0 .525-.007-.017.551-.017 1.102.001 1.654-.958-.002-1.914-.002-2.874-.002h-1.199c.007-3.988.003-7.976.003-11.965zm.604 13.93c.365-.313.839-.463 1.314-.463.501 0 1.006.167 1.384.49-.068.277-.365.471-.522.718-.251-.19-.567-.349-.884-.349-.131 0-.261.028-.387.092-.696.307-.744 1.413-.116 1.815.166.106.361.154.557.154.188 0 .379-.044.546-.126.082-.146.028-.33.046-.492-.238.002-.474.004-.711.006 0-.242.001-.481.003-.72.544 0 1.089 0 1.632.004 0 .536.004 1.074-.003 1.611-.438.346-.988.558-1.545.558-.161 0-.324-.019-.485-.057-.655-.122-1.232-.627-1.397-1.278-.229-.69.021-1.493.568-1.963z" fill-rule="nonzero" transform="translate(-836.745 -771.77)"/></svg>