<svg height="93.063" viewBox="0 0 112.562 93.063" width="112.562" xmlns="http://www.w3.org/2000/svg"><path d="m125.819 111.531-56.058 9.908a11.665 11.665 0 0 1 -13.371-9.669l-10.459-59.45a11.686 11.686 0 0 1 9.269-13.669l56.058-9.908a11.664 11.664 0 0 1 13.372 9.669l10.458 59.45a11.687 11.687 0 0 1 -9.269 13.669zm-16.907-70.2a4 4 0 0 0 -4.628-3.249l-47.218 8.345a4 4 0 0 0 -3.241 4.639l5.551 31.553a4 4 0 0 0 4.624 3.248l47.218-8.346a4 4 0 0 0 3.241-4.64zm46.109 8.369-15.739 2.782 3.418 19.476a4 4 0 1 1 -7.869 1.391l-4.113-23.417-2.081-11.832a4 4 0 0 1 3.241-4.639l3.935-.7 15.739-2.782a4 4 0 0 1 4.628 3.249l2.082 11.832a4 4 0 0 1 -3.241 4.64z" fill-rule="evenodd" transform="translate(-45.75 -28.563)"/></svg>