<svg clip-rule="evenodd" fill-rule="evenodd" stroke-linejoin="round" stroke-miterlimit="2" viewBox="0 0 20 22" xmlns="http://www.w3.org/2000/svg"><path d="m19.418 19.92c.095-.097.095-.252 0-.349l-6.472-6.634c.944-1.202 1.513-2.728 1.513-4.392 0-3.879-3.071-7.02-6.854-7.02-3.784 0-6.855 3.141-6.855 7.02s3.071 7.02 6.855 7.02c1.622 0 3.11-.581 4.284-1.546 0 0 6.464 6.626 6.464 6.626.047.048.112.075.179.075s.132-.027.179-.075zm-17.168-11.375c0-3.028 2.4-5.495 5.355-5.495 2.954 0 5.354 2.467 5.354 5.495s-2.4 5.495-5.354 5.495c-2.955 0-5.355-2.467-5.355-5.495z"/></svg>