<svg clip-rule="evenodd" fill-rule="evenodd" stroke-linejoin="round" stroke-miterlimit="2" viewBox="0 0 30 22" xmlns="http://www.w3.org/2000/svg"><path d="m1799.47 55.038c-1.43 0-2.56 1.255-2.56 2.784 0 1.53 1.16 2.783 2.56 2.783 1.43 0 2.56-1.253 2.56-2.783 0-1.529-1.13-2.784-2.56-2.784zm-9.15 0c-1.43 0-2.56 1.255-2.56 2.784 0 1.53 1.15 2.783 2.56 2.783 1.43 0 2.56-1.253 2.56-2.783.02-1.529-1.13-2.784-2.56-2.784zm11.66 11.711s-.9-1.078-1.66-2.03c3.29-.928 4.54-2.985 4.54-2.985-1.03.677-2 1.153-2.88 1.48-1.25.527-2.46.877-3.64 1.078-2.41.451-4.61.326-6.49-.025-1.43-.276-2.66-.677-3.69-1.078-.57-.226-1.2-.502-1.83-.853-.07-.05-.15-.076-.22-.126-.05-.025-.08-.05-.1-.074-.46-.252-.71-.427-.71-.427s1.21 2.006 4.39 2.959c-.75.953-1.68 2.081-1.68 2.081-5.54-.175-7.65-3.811-7.65-3.811 0-8.075 3.61-14.62 3.61-14.62 3.62-2.708 7.05-2.633 7.05-2.633l.25.301c-4.51 1.304-6.59 3.285-6.59 3.285s.55-.301 1.48-.728c2.68-1.177 4.81-1.504 5.69-1.579.15-.025.27-.05.43-.05 1.52-.2 3.25-.251 5.06-.05 2.38.275 4.94.978 7.55 2.407 0 0-1.98-1.88-6.25-3.185l.36-.401s3.43-.075 7.04 2.633c0 0 3.61 6.545 3.61 14.62 0 0-2.13 3.636-7.67 3.811z" fill-rule="nonzero" transform="translate(-1780.36 -45.6848)"/></svg>